<svg width="188" height="48" viewBox="0 0 188 48" fill="none" xmlns="http://www.w3.org/2000/svg">
<path d="M0.5 7H1.5V6V5H3H4.5H5.5V4H6.5V3H7.5V2H8.5V1H21.5V2H22.5V3H23.5V4H24.5V5H47.5V6H48.5V7H49.5V45V46H48.5V47H1.5V46H0.5V45V7Z" fill="white"/>
<path d="M1.5 7H0.5V45M1.5 7V6M1.5 7V11M8.5 2H7.5V3H6.5V4H5.5V5H4.5M8.5 2V1H21.5V2M8.5 2H21.5M1.5 6V5H3M1.5 6H3M4.5 5V6H3M4.5 5H3M3 5V6M21.5 2H22.5V3M21.5 2V3M22.5 3H23.5V4M22.5 3V4M23.5 4H24.5V5M23.5 4V5M24.5 5H47.5V6M24.5 5V6H47.5M47.5 6H48.5V7M48.5 7H49.5V45M48.5 7V11M48.5 46H49.5V45M48.5 46V47H1.5V46M48.5 46H1.5M1.5 46H0.5V45M0.5 45H1.5M49.5 45H48.5M48.5 45H1.5M48.5 45V11M1.5 45V11M1.5 11H2.5H3.5M3.5 11V10H46.5V11M3.5 11H46.5M46.5 11H47.5H48.5" stroke="#242632"/>
<path d="M6.354 22.072C6.138 22.072 5.925 22.06 5.715 22.036C5.505 22.012 5.28 21.973 5.04 21.919V15.844C5.304 15.784 5.553 15.745 5.787 15.727C6.027 15.703 6.252 15.691 6.462 15.691C7.014 15.691 7.497 15.799 7.911 16.015C8.325 16.231 8.649 16.573 8.883 17.041C9.117 17.509 9.234 18.121 9.234 18.877C9.234 19.651 9.108 20.272 8.856 20.74C8.61 21.208 8.271 21.547 7.839 21.757C7.407 21.967 6.912 22.072 6.354 22.072ZM6.471 21.1C6.855 21.1 7.167 21.013 7.407 20.839C7.647 20.659 7.821 20.404 7.929 20.074C8.037 19.738 8.091 19.339 8.091 18.877C8.091 18.451 8.043 18.073 7.947 17.743C7.851 17.413 7.692 17.152 7.47 16.96C7.248 16.762 6.945 16.663 6.561 16.663C6.495 16.663 6.426 16.666 6.354 16.672C6.288 16.672 6.222 16.678 6.156 16.69V21.082C6.204 21.088 6.255 21.094 6.309 21.1C6.369 21.1 6.423 21.1 6.471 21.1ZM12.4701 22.108C12.0501 22.108 11.7201 22.03 11.4801 21.874C11.2401 21.712 11.0691 21.481 10.9671 21.181C10.8711 20.881 10.8231 20.515 10.8231 20.083V18.211H9.50013V17.284H11.9391V20.2C11.9391 20.422 11.9631 20.602 12.0111 20.74C12.0651 20.872 12.1431 20.971 12.2451 21.037C12.3531 21.097 12.4881 21.127 12.6501 21.127C12.7821 21.127 12.9291 21.112 13.0911 21.082C13.2531 21.046 13.4211 20.986 13.5951 20.902L13.7391 21.811C13.6071 21.877 13.4691 21.934 13.3251 21.982C13.1871 22.024 13.0431 22.054 12.8931 22.072C12.7491 22.096 12.6081 22.108 12.4701 22.108ZM11.2101 16.573C11.0121 16.573 10.8381 16.504 10.6881 16.366C10.5441 16.228 10.4721 16.045 10.4721 15.817C10.4721 15.583 10.5441 15.4 10.6881 15.268C10.8381 15.13 11.0121 15.061 11.2101 15.061C11.4141 15.061 11.5881 15.13 11.7321 15.268C11.8821 15.4 11.9571 15.583 11.9571 15.817C11.9571 16.045 11.8821 16.228 11.7321 16.366C11.5881 16.504 11.4141 16.573 11.2101 16.573ZM14.6263 22V17.572C14.9563 17.452 15.2923 17.359 15.6343 17.293C15.9823 17.221 16.3723 17.185 16.8043 17.185C16.9123 17.185 17.0503 17.191 17.2183 17.203C17.3863 17.215 17.5603 17.233 17.7403 17.257C17.9203 17.281 18.0853 17.317 18.2353 17.365L18.0373 18.391C17.9233 18.361 17.7913 18.334 17.6413 18.31C17.4973 18.286 17.3563 18.268 17.2183 18.256C17.0803 18.244 16.9543 18.238 16.8403 18.238C16.6603 18.238 16.4803 18.25 16.3003 18.274C16.1203 18.292 15.9373 18.325 15.7513 18.373V22H14.6263ZM21.1474 22.108C20.6134 22.108 20.1544 22.012 19.7704 21.82C19.3924 21.628 19.1014 21.352 18.8974 20.992C18.6994 20.626 18.6004 20.185 18.6004 19.669C18.6004 19.249 18.6604 18.883 18.7804 18.571C18.9064 18.259 19.0744 17.998 19.2844 17.788C19.5004 17.578 19.7404 17.422 20.0044 17.32C20.2684 17.212 20.5414 17.158 20.8234 17.158C21.2794 17.158 21.6604 17.251 21.9664 17.437C22.2784 17.617 22.5154 17.887 22.6774 18.247C22.8394 18.601 22.9204 19.045 22.9204 19.579C22.9204 19.645 22.9174 19.717 22.9114 19.795C22.9114 19.873 22.9084 19.939 22.9024 19.993H19.7434C19.7554 20.353 19.8934 20.632 20.1574 20.83C20.4214 21.028 20.7724 21.127 21.2104 21.127C21.4684 21.127 21.7084 21.103 21.9304 21.055C22.1584 21.001 22.3414 20.95 22.4794 20.902L22.6324 21.847C22.4524 21.919 22.2364 21.979 21.9844 22.027C21.7384 22.081 21.4594 22.108 21.1474 22.108ZM19.7524 19.183H21.8224C21.8224 18.985 21.7864 18.805 21.7144 18.643C21.6484 18.481 21.5404 18.352 21.3904 18.256C21.2464 18.154 21.0634 18.103 20.8414 18.103C20.6134 18.103 20.4214 18.154 20.2654 18.256C20.1154 18.358 19.9984 18.493 19.9144 18.661C19.8304 18.823 19.7764 18.997 19.7524 19.183ZM25.9855 22.108C25.3795 22.108 24.8785 22.003 24.4825 21.793C24.0925 21.583 23.7985 21.295 23.6005 20.929C23.4025 20.557 23.3035 20.128 23.3035 19.642C23.3035 19.276 23.3605 18.943 23.4745 18.643C23.5885 18.337 23.7595 18.073 23.9875 17.851C24.2155 17.629 24.4945 17.458 24.8245 17.338C25.1605 17.218 25.5445 17.158 25.9765 17.158C26.2465 17.158 26.4925 17.179 26.7145 17.221C26.9425 17.257 27.1765 17.32 27.4165 17.41L27.1735 18.319C27.0175 18.265 26.8525 18.223 26.6785 18.193C26.5105 18.157 26.3065 18.139 26.0665 18.139C25.6945 18.139 25.3885 18.199 25.1485 18.319C24.9085 18.439 24.7285 18.61 24.6085 18.832C24.4945 19.054 24.4375 19.324 24.4375 19.642C24.4375 19.96 24.4975 20.23 24.6175 20.452C24.7435 20.668 24.9295 20.836 25.1755 20.956C25.4275 21.07 25.7425 21.127 26.1205 21.127C26.3185 21.127 26.5225 21.115 26.7325 21.091C26.9485 21.061 27.1495 21.013 27.3355 20.947L27.4975 21.874C27.3715 21.922 27.2305 21.964 27.0745 22C26.9245 22.03 26.7595 22.054 26.5795 22.072C26.3995 22.096 26.2015 22.108 25.9855 22.108ZM30.7067 22.108C30.2987 22.108 29.9627 22.057 29.6987 21.955C29.4347 21.847 29.2397 21.655 29.1137 21.379C28.9877 21.103 28.9247 20.719 28.9247 20.227V18.211H27.8717V17.284H28.9247V16.051L30.0407 15.871V17.284H32.0297V18.211H30.0407V20.209C30.0407 20.461 30.0707 20.653 30.1307 20.785C30.1907 20.917 30.2777 21.007 30.3917 21.055C30.5117 21.103 30.6557 21.127 30.8237 21.127C31.0577 21.127 31.2557 21.112 31.4177 21.082C31.5797 21.046 31.7627 20.98 31.9667 20.884L32.1287 21.847C31.9427 21.925 31.7237 21.988 31.4717 22.036C31.2197 22.084 30.9647 22.108 30.7067 22.108ZM34.5368 22.126C34.1048 22.126 33.7238 22.021 33.3938 21.811C33.0638 21.601 32.8058 21.31 32.6198 20.938C32.4338 20.56 32.3408 20.125 32.3408 19.633C32.3408 19.135 32.4338 18.703 32.6198 18.337C32.8118 17.965 33.0728 17.677 33.4028 17.473C33.7388 17.263 34.1168 17.158 34.5368 17.158C34.9748 17.158 35.3588 17.263 35.6888 17.473C36.0188 17.677 36.2768 17.965 36.4628 18.337C36.6488 18.703 36.7418 19.135 36.7418 19.633C36.7418 20.125 36.6488 20.56 36.4628 20.938C36.2768 21.31 36.0188 21.601 35.6888 21.811C35.3648 22.021 34.9808 22.126 34.5368 22.126ZM34.5278 21.145C34.7558 21.145 34.9478 21.082 35.1038 20.956C35.2658 20.83 35.3888 20.656 35.4728 20.434C35.5568 20.206 35.5988 19.942 35.5988 19.642C35.5988 19.342 35.5568 19.078 35.4728 18.85C35.3948 18.622 35.2778 18.448 35.1218 18.328C34.9658 18.202 34.7708 18.139 34.5368 18.139C34.3148 18.139 34.1228 18.202 33.9608 18.328C33.8048 18.448 33.6848 18.622 33.6008 18.85C33.5168 19.078 33.4748 19.342 33.4748 19.642C33.4748 19.942 33.5138 20.206 33.5918 20.434C33.6758 20.656 33.7958 20.83 33.9518 20.956C34.1078 21.082 34.2998 21.145 34.5278 21.145ZM5.454 32V27.572C5.784 27.452 6.12 27.359 6.462 27.293C6.81 27.221 7.2 27.185 7.632 27.185C7.74 27.185 7.878 27.191 8.046 27.203C8.214 27.215 8.388 27.233 8.568 27.257C8.748 27.281 8.913 27.317 9.063 27.365L8.865 28.391C8.751 28.361 8.619 28.334 8.469 28.31C8.325 28.286 8.184 28.268 8.046 28.256C7.908 28.244 7.782 28.238 7.668 28.238C7.488 28.238 7.308 28.25 7.128 28.274C6.948 28.292 6.765 28.325 6.579 28.373V32H5.454ZM10.2471 33.692C10.0671 33.692 9.89313 33.674 9.72513 33.638C9.55713 33.602 9.42513 33.563 9.32913 33.521L9.54513 32.594C9.65313 32.648 9.76113 32.687 9.86913 32.711C9.98313 32.735 10.0941 32.747 10.2021 32.747C10.4721 32.747 10.6851 32.666 10.8411 32.504C11.0031 32.348 11.1381 32.144 11.2461 31.892C11.0361 31.478 10.8261 31.028 10.6161 30.542C10.4061 30.05 10.2051 29.531 10.0131 28.985C9.82113 28.439 9.64713 27.872 9.49113 27.284H10.6701C10.7541 27.62 10.8531 27.986 10.9671 28.382C11.0871 28.778 11.2161 29.174 11.3541 29.57C11.4921 29.966 11.6361 30.335 11.7861 30.677C11.9001 30.329 12.0051 29.966 12.1011 29.588C12.2031 29.21 12.2991 28.826 12.3891 28.436C12.4851 28.046 12.5781 27.662 12.6681 27.284H13.8111C13.6551 27.866 13.4961 28.439 13.3341 29.003C13.1721 29.567 12.9981 30.11 12.8121 30.632C12.6321 31.154 12.4311 31.661 12.2091 32.153C12.0471 32.507 11.8791 32.798 11.7051 33.026C11.5311 33.254 11.3271 33.422 11.0931 33.53C10.8591 33.638 10.5771 33.692 10.2471 33.692Z" fill="#242632"/>
<path d="M69.5 7H70.5V6V5H72H73.5H74.5V4H75.5V3H76.5V2H77.5V1H90.5V2H91.5V3H92.5V4H93.5V5H116.5V6H117.5V7H118.5V45V46H117.5V47H70.5V46H69.5V45V7Z" fill="white"/>
<path d="M70.5 7H69.5V45M70.5 7V6M70.5 7V11M77.5 2H76.5V3H75.5V4H74.5V5H73.5M77.5 2V1H90.5V2M77.5 2H90.5M70.5 6V5H72M70.5 6H72M73.5 5V6H72M73.5 5H72M72 5V6M90.5 2H91.5V3M90.5 2V3M91.5 3H92.5V4M91.5 3V4M92.5 4H93.5V5M92.5 4V5M93.5 5H116.5V6M93.5 5V6H116.5M116.5 6H117.5V7M117.5 7H118.5V45M117.5 7V11M117.5 46H118.5V45M117.5 46V47H70.5V46M117.5 46H70.5M70.5 46H69.5V45M69.5 45H70.5M118.5 45H117.5M117.5 45H70.5M117.5 45V11M70.5 45V11M70.5 11H71.5H72.5M72.5 11V10H115.5V11M72.5 11H115.5M115.5 11H116.5H117.5" stroke="#242632"/>
<path d="M74.049 22V15.853C74.205 15.811 74.379 15.778 74.571 15.754C74.769 15.73 74.961 15.715 75.147 15.709C75.339 15.697 75.501 15.691 75.633 15.691C76.359 15.691 76.929 15.859 77.343 16.195C77.757 16.525 77.964 17.032 77.964 17.716C77.964 18.088 77.883 18.421 77.721 18.715C77.559 19.003 77.304 19.228 76.956 19.39C77.106 19.612 77.265 19.87 77.433 20.164C77.607 20.458 77.775 20.764 77.937 21.082C78.099 21.4 78.237 21.706 78.351 22H77.172C77.064 21.718 76.941 21.442 76.803 21.172C76.671 20.902 76.53 20.641 76.38 20.389C76.236 20.131 76.086 19.885 75.93 19.651C75.9 19.657 75.867 19.66 75.831 19.66C75.795 19.66 75.762 19.66 75.732 19.66H75.165V22H74.049ZM75.165 18.724H75.516C75.816 18.724 76.062 18.688 76.254 18.616C76.446 18.544 76.59 18.433 76.686 18.283C76.782 18.127 76.83 17.932 76.83 17.698C76.83 17.446 76.779 17.245 76.677 17.095C76.575 16.945 76.434 16.837 76.254 16.771C76.08 16.699 75.882 16.663 75.66 16.663C75.582 16.663 75.495 16.666 75.399 16.672C75.309 16.672 75.231 16.678 75.165 16.69V18.724ZM80.9751 22.108C80.4411 22.108 79.9821 22.012 79.5981 21.82C79.2201 21.628 78.9291 21.352 78.7251 20.992C78.5271 20.626 78.4281 20.185 78.4281 19.669C78.4281 19.249 78.4881 18.883 78.6081 18.571C78.7341 18.259 78.9021 17.998 79.1121 17.788C79.3281 17.578 79.5681 17.422 79.8321 17.32C80.0961 17.212 80.3691 17.158 80.6511 17.158C81.1071 17.158 81.4881 17.251 81.7941 17.437C82.1061 17.617 82.3431 17.887 82.5051 18.247C82.6671 18.601 82.7481 19.045 82.7481 19.579C82.7481 19.645 82.7451 19.717 82.7391 19.795C82.7391 19.873 82.7361 19.939 82.7301 19.993H79.5711C79.5831 20.353 79.7211 20.632 79.9851 20.83C80.2491 21.028 80.6001 21.127 81.0381 21.127C81.2961 21.127 81.5361 21.103 81.7581 21.055C81.9861 21.001 82.1691 20.95 82.3071 20.902L82.4601 21.847C82.2801 21.919 82.0641 21.979 81.8121 22.027C81.5661 22.081 81.2871 22.108 80.9751 22.108ZM79.5801 19.183H81.6501C81.6501 18.985 81.6141 18.805 81.5421 18.643C81.4761 18.481 81.3681 18.352 81.2181 18.256C81.0741 18.154 80.8911 18.103 80.6691 18.103C80.4411 18.103 80.2491 18.154 80.0931 18.256C79.9431 18.358 79.8261 18.493 79.7421 18.661C79.6581 18.823 79.6041 18.997 79.5801 19.183ZM84.9673 22.108C84.7153 22.108 84.4843 22.087 84.2743 22.045C84.0643 22.009 83.8723 21.964 83.6983 21.91C83.5303 21.85 83.3803 21.793 83.2483 21.739L83.4373 20.785C83.6653 20.875 83.9113 20.962 84.1753 21.046C84.4453 21.124 84.7213 21.163 85.0033 21.163C85.3273 21.163 85.5733 21.136 85.7413 21.082C85.9153 21.022 86.0023 20.914 86.0023 20.758C86.0023 20.632 85.9513 20.53 85.8493 20.452C85.7533 20.368 85.6273 20.296 85.4713 20.236C85.3153 20.176 85.1443 20.116 84.9583 20.056C84.7783 20.002 84.5923 19.939 84.4003 19.867C84.2143 19.795 84.0433 19.705 83.8873 19.597C83.7313 19.489 83.6053 19.354 83.5093 19.192C83.4133 19.03 83.3653 18.832 83.3653 18.598C83.3653 18.334 83.4343 18.094 83.5723 17.878C83.7103 17.656 83.9263 17.482 84.2203 17.356C84.5143 17.224 84.8923 17.158 85.3543 17.158C85.6483 17.158 85.9273 17.182 86.1913 17.23C86.4613 17.272 86.6923 17.332 86.8843 17.41L86.7043 18.373C86.6323 18.343 86.5273 18.307 86.3893 18.265C86.2513 18.223 86.0923 18.187 85.9123 18.157C85.7383 18.121 85.5553 18.103 85.3633 18.103C85.0333 18.103 84.8023 18.145 84.6703 18.229C84.5383 18.307 84.4723 18.409 84.4723 18.535C84.4723 18.637 84.5173 18.727 84.6073 18.805C84.6973 18.883 84.8143 18.952 84.9583 19.012C85.1083 19.066 85.2703 19.123 85.4443 19.183C85.6303 19.249 85.8193 19.321 86.0113 19.399C86.2093 19.477 86.3893 19.573 86.5513 19.687C86.7193 19.795 86.8513 19.933 86.9473 20.101C87.0493 20.263 87.1003 20.467 87.1003 20.713C87.1003 20.983 87.0313 21.223 86.8933 21.433C86.7553 21.643 86.5303 21.808 86.2183 21.928C85.9063 22.048 85.4893 22.108 84.9673 22.108ZM90.1474 22.108C89.6134 22.108 89.1544 22.012 88.7704 21.82C88.3924 21.628 88.1014 21.352 87.8974 20.992C87.6994 20.626 87.6004 20.185 87.6004 19.669C87.6004 19.249 87.6604 18.883 87.7804 18.571C87.9064 18.259 88.0744 17.998 88.2844 17.788C88.5004 17.578 88.7404 17.422 89.0044 17.32C89.2684 17.212 89.5414 17.158 89.8234 17.158C90.2794 17.158 90.6604 17.251 90.9664 17.437C91.2784 17.617 91.5154 17.887 91.6774 18.247C91.8394 18.601 91.9204 19.045 91.9204 19.579C91.9204 19.645 91.9174 19.717 91.9114 19.795C91.9114 19.873 91.9084 19.939 91.9024 19.993H88.7434C88.7554 20.353 88.8934 20.632 89.1574 20.83C89.4214 21.028 89.7724 21.127 90.2104 21.127C90.4684 21.127 90.7084 21.103 90.9304 21.055C91.1584 21.001 91.3414 20.95 91.4794 20.902L91.6324 21.847C91.4524 21.919 91.2364 21.979 90.9844 22.027C90.7384 22.081 90.4594 22.108 90.1474 22.108ZM88.7524 19.183H90.8224C90.8224 18.985 90.7864 18.805 90.7144 18.643C90.6484 18.481 90.5404 18.352 90.3904 18.256C90.2464 18.154 90.0634 18.103 89.8414 18.103C89.6134 18.103 89.4214 18.154 89.2654 18.256C89.1154 18.358 88.9984 18.493 88.9144 18.661C88.8304 18.823 88.7764 18.997 88.7524 19.183ZM94.3285 22.108C94.0405 22.108 93.7735 22.081 93.5275 22.027C93.2875 21.979 93.0775 21.898 92.8975 21.784C92.7175 21.664 92.5765 21.505 92.4745 21.307C92.3785 21.103 92.3305 20.857 92.3305 20.569C92.3305 20.197 92.4235 19.906 92.6095 19.696C92.8015 19.486 93.0475 19.336 93.3475 19.246C93.6475 19.15 93.9655 19.102 94.3015 19.102C94.4695 19.102 94.6255 19.111 94.7695 19.129C94.9195 19.141 95.0575 19.162 95.1835 19.192V19.012C95.1835 18.85 95.1505 18.7 95.0845 18.562C95.0245 18.424 94.9195 18.313 94.7695 18.229C94.6195 18.145 94.4155 18.103 94.1575 18.103C93.9055 18.103 93.6715 18.121 93.4555 18.157C93.2395 18.193 93.0685 18.235 92.9425 18.283L92.7895 17.374C92.9275 17.32 93.1345 17.272 93.4105 17.23C93.6925 17.182 93.9835 17.158 94.2835 17.158C94.7875 17.158 95.1835 17.236 95.4715 17.392C95.7595 17.548 95.9635 17.767 96.0835 18.049C96.2035 18.331 96.2635 18.664 96.2635 19.048V21.901C96.0775 21.943 95.8105 21.988 95.4625 22.036C95.1205 22.084 94.7425 22.108 94.3285 22.108ZM94.3915 21.199C94.5415 21.199 94.6855 21.196 94.8235 21.19C94.9675 21.178 95.0875 21.166 95.1835 21.154V19.975C95.0995 19.963 94.9945 19.951 94.8685 19.939C94.7425 19.921 94.6225 19.912 94.5085 19.912C94.3225 19.912 94.1485 19.93 93.9865 19.966C93.8245 20.002 93.6925 20.065 93.5905 20.155C93.4885 20.239 93.4375 20.368 93.4375 20.542C93.4375 20.776 93.5245 20.944 93.6985 21.046C93.8725 21.148 94.1035 21.199 94.3915 21.199ZM74.454 32V27.572C74.784 27.452 75.12 27.359 75.462 27.293C75.81 27.221 76.2 27.185 76.632 27.185C76.74 27.185 76.878 27.191 77.046 27.203C77.214 27.215 77.388 27.233 77.568 27.257C77.748 27.281 77.913 27.317 78.063 27.365L77.865 28.391C77.751 28.361 77.619 28.334 77.469 28.31C77.325 28.286 77.184 28.268 77.046 28.256C76.908 28.244 76.782 28.238 76.668 28.238C76.488 28.238 76.308 28.25 76.128 28.274C75.948 28.292 75.765 28.325 75.579 28.373V32H74.454ZM81.2271 32.108C80.6211 32.108 80.1201 32.003 79.7241 31.793C79.3341 31.583 79.0401 31.295 78.8421 30.929C78.6441 30.557 78.5451 30.128 78.5451 29.642C78.5451 29.276 78.6021 28.943 78.7161 28.643C78.8301 28.337 79.0011 28.073 79.2291 27.851C79.4571 27.629 79.7361 27.458 80.0661 27.338C80.4021 27.218 80.7861 27.158 81.2181 27.158C81.4881 27.158 81.7341 27.179 81.9561 27.221C82.1841 27.257 82.4181 27.32 82.6581 27.41L82.4151 28.319C82.2591 28.265 82.0941 28.223 81.9201 28.193C81.7521 28.157 81.5481 28.139 81.3081 28.139C80.9361 28.139 80.6301 28.199 80.3901 28.319C80.1501 28.439 79.9701 28.61 79.8501 28.832C79.7361 29.054 79.6791 29.324 79.6791 29.642C79.6791 29.96 79.7391 30.23 79.8591 30.452C79.9851 30.668 80.1711 30.836 80.4171 30.956C80.6691 31.07 80.9841 31.127 81.3621 31.127C81.5601 31.127 81.7641 31.115 81.9741 31.091C82.1901 31.061 82.3911 31.013 82.5771 30.947L82.7391 31.874C82.6131 31.922 82.4721 31.964 82.3161 32C82.1661 32.03 82.0011 32.054 81.8211 32.072C81.6411 32.096 81.4431 32.108 81.2271 32.108ZM83.3383 32V25.196L84.4453 25.007V27.329C84.5593 27.287 84.6913 27.251 84.8413 27.221C84.9973 27.191 85.1323 27.176 85.2463 27.176C85.7203 27.176 86.0893 27.269 86.3533 27.455C86.6233 27.635 86.8123 27.887 86.9203 28.211C87.0343 28.529 87.0913 28.904 87.0913 29.336V32H85.9753V29.507C85.9753 29.183 85.9483 28.925 85.8943 28.733C85.8403 28.535 85.7533 28.391 85.6333 28.301C85.5193 28.205 85.3543 28.157 85.1383 28.157C85.0063 28.157 84.8743 28.172 84.7423 28.202C84.6163 28.232 84.5173 28.259 84.4453 28.283V32H83.3383ZM90.1474 32.108C89.6134 32.108 89.1544 32.012 88.7704 31.82C88.3924 31.628 88.1014 31.352 87.8974 30.992C87.6994 30.626 87.6004 30.185 87.6004 29.669C87.6004 29.249 87.6604 28.883 87.7804 28.571C87.9064 28.259 88.0744 27.998 88.2844 27.788C88.5004 27.578 88.7404 27.422 89.0044 27.32C89.2684 27.212 89.5414 27.158 89.8234 27.158C90.2794 27.158 90.6604 27.251 90.9664 27.437C91.2784 27.617 91.5154 27.887 91.6774 28.247C91.8394 28.601 91.9204 29.045 91.9204 29.579C91.9204 29.645 91.9174 29.717 91.9114 29.795C91.9114 29.873 91.9084 29.939 91.9024 29.993H88.7434C88.7554 30.353 88.8934 30.632 89.1574 30.83C89.4214 31.028 89.7724 31.127 90.2104 31.127C90.4684 31.127 90.7084 31.103 90.9304 31.055C91.1584 31.001 91.3414 30.95 91.4794 30.902L91.6324 31.847C91.4524 31.919 91.2364 31.979 90.9844 32.027C90.7384 32.081 90.4594 32.108 90.1474 32.108ZM88.7524 29.183H90.8224C90.8224 28.985 90.7864 28.805 90.7144 28.643C90.6484 28.481 90.5404 28.352 90.3904 28.256C90.2464 28.154 90.0634 28.103 89.8414 28.103C89.6134 28.103 89.4214 28.154 89.2654 28.256C89.1154 28.358 88.9984 28.493 88.9144 28.661C88.8304 28.823 88.7764 28.997 88.7524 29.183ZM94.1395 32.108C93.8875 32.108 93.6565 32.087 93.4465 32.045C93.2365 32.009 93.0445 31.964 92.8705 31.91C92.7025 31.85 92.5525 31.793 92.4205 31.739L92.6095 30.785C92.8375 30.875 93.0835 30.962 93.3475 31.046C93.6175 31.124 93.8935 31.163 94.1755 31.163C94.4995 31.163 94.7455 31.136 94.9135 31.082C95.0875 31.022 95.1745 30.914 95.1745 30.758C95.1745 30.632 95.1235 30.53 95.0215 30.452C94.9255 30.368 94.7995 30.296 94.6435 30.236C94.4875 30.176 94.3165 30.116 94.1305 30.056C93.9505 30.002 93.7645 29.939 93.5725 29.867C93.3865 29.795 93.2155 29.705 93.0595 29.597C92.9035 29.489 92.7775 29.354 92.6815 29.192C92.5855 29.03 92.5375 28.832 92.5375 28.598C92.5375 28.334 92.6065 28.094 92.7445 27.878C92.8825 27.656 93.0985 27.482 93.3925 27.356C93.6865 27.224 94.0645 27.158 94.5265 27.158C94.8205 27.158 95.0995 27.182 95.3635 27.23C95.6335 27.272 95.8645 27.332 96.0565 27.41L95.8765 28.373C95.8045 28.343 95.6995 28.307 95.5615 28.265C95.4235 28.223 95.2645 28.187 95.0845 28.157C94.9105 28.121 94.7275 28.103 94.5355 28.103C94.2055 28.103 93.9745 28.145 93.8425 28.229C93.7105 28.307 93.6445 28.409 93.6445 28.535C93.6445 28.637 93.6895 28.727 93.7795 28.805C93.8695 28.883 93.9865 28.952 94.1305 29.012C94.2805 29.066 94.4425 29.123 94.6165 29.183C94.8025 29.249 94.9915 29.321 95.1835 29.399C95.3815 29.477 95.5615 29.573 95.7235 29.687C95.8915 29.795 96.0235 29.933 96.1195 30.101C96.2215 30.263 96.2725 30.467 96.2725 30.713C96.2725 30.983 96.2035 31.223 96.0655 31.433C95.9275 31.643 95.7025 31.808 95.3905 31.928C95.0785 32.048 94.6615 32.108 94.1395 32.108Z" fill="#242632"/>
<path d="M138.5 7H139.5V6V5H141H142.5H143.5V4H144.5V3H145.5V2H146.5V1H159.5V2H160.5V3H161.5V4H162.5V5H185.5V6H186.5V7H187.5V45V46H186.5V47H139.5V46H138.5V45V7Z" fill="white"/>
<path d="M139.5 7H138.5V45M139.5 7V6M139.5 7V11M146.5 2H145.5V3H144.5V4H143.5V5H142.5M146.5 2V1H159.5V2M146.5 2H159.5M139.5 6V5H141M139.5 6H141M142.5 5V6H141M142.5 5H141M141 5V6M159.5 2H160.5V3M159.5 2V3M160.5 3H161.5V4M160.5 3V4M161.5 4H162.5V5M161.5 4V5M162.5 5H185.5V6M162.5 5V6H185.5M185.5 6H186.5V7M186.5 7H187.5V45M186.5 7V11M186.5 46H187.5V45M186.5 46V47H139.5V46M186.5 46H139.5M139.5 46H138.5V45M138.5 45H139.5M187.5 45H186.5M186.5 45H139.5M186.5 45V11M139.5 45V11M139.5 11H140.5H141.5M141.5 11V10H184.5V11M141.5 11H184.5M184.5 11H185.5H186.5" stroke="#242632"/>
<path d="M145.371 22.135C144.855 22.135 144.408 22.012 144.03 21.766C143.652 21.52 143.358 21.157 143.148 20.677C142.938 20.191 142.833 19.591 142.833 18.877C142.833 18.169 142.95 17.575 143.184 17.095C143.424 16.609 143.745 16.243 144.147 15.997C144.549 15.745 144.996 15.619 145.488 15.619C145.812 15.619 146.085 15.649 146.307 15.709C146.529 15.769 146.709 15.832 146.847 15.898C146.985 15.964 147.084 16.018 147.144 16.06L146.838 16.969C146.688 16.867 146.505 16.78 146.289 16.708C146.073 16.63 145.851 16.591 145.623 16.591C145.251 16.591 144.942 16.687 144.696 16.879C144.45 17.071 144.267 17.338 144.147 17.68C144.027 18.022 143.967 18.421 143.967 18.877C143.967 19.369 144.024 19.786 144.138 20.128C144.252 20.464 144.42 20.722 144.642 20.902C144.87 21.076 145.146 21.163 145.47 21.163C145.572 21.163 145.671 21.154 145.767 21.136C145.863 21.118 145.947 21.103 146.019 21.091V18.787H147.126V21.847C146.988 21.901 146.766 21.961 146.46 22.027C146.154 22.099 145.791 22.135 145.371 22.135ZM148.04 22V17.572C148.37 17.452 148.706 17.359 149.048 17.293C149.396 17.221 149.786 17.185 150.218 17.185C150.326 17.185 150.464 17.191 150.632 17.203C150.8 17.215 150.974 17.233 151.154 17.257C151.334 17.281 151.499 17.317 151.649 17.365L151.451 18.391C151.337 18.361 151.205 18.334 151.055 18.31C150.911 18.286 150.77 18.268 150.632 18.256C150.494 18.244 150.368 18.238 150.254 18.238C150.074 18.238 149.894 18.25 149.714 18.274C149.534 18.292 149.351 18.325 149.165 18.373V22H148.04ZM154.156 22.108C153.868 22.108 153.601 22.081 153.355 22.027C153.115 21.979 152.905 21.898 152.725 21.784C152.545 21.664 152.404 21.505 152.302 21.307C152.206 21.103 152.158 20.857 152.158 20.569C152.158 20.197 152.251 19.906 152.437 19.696C152.629 19.486 152.875 19.336 153.175 19.246C153.475 19.15 153.793 19.102 154.129 19.102C154.297 19.102 154.453 19.111 154.597 19.129C154.747 19.141 154.885 19.162 155.011 19.192V19.012C155.011 18.85 154.978 18.7 154.912 18.562C154.852 18.424 154.747 18.313 154.597 18.229C154.447 18.145 154.243 18.103 153.985 18.103C153.733 18.103 153.499 18.121 153.283 18.157C153.067 18.193 152.896 18.235 152.77 18.283L152.617 17.374C152.755 17.32 152.962 17.272 153.238 17.23C153.52 17.182 153.811 17.158 154.111 17.158C154.615 17.158 155.011 17.236 155.299 17.392C155.587 17.548 155.791 17.767 155.911 18.049C156.031 18.331 156.091 18.664 156.091 19.048V21.901C155.905 21.943 155.638 21.988 155.29 22.036C154.948 22.084 154.57 22.108 154.156 22.108ZM154.219 21.199C154.369 21.199 154.513 21.196 154.651 21.19C154.795 21.178 154.915 21.166 155.011 21.154V19.975C154.927 19.963 154.822 19.951 154.696 19.939C154.57 19.921 154.45 19.912 154.336 19.912C154.15 19.912 153.976 19.93 153.814 19.966C153.652 20.002 153.52 20.065 153.418 20.155C153.316 20.239 153.265 20.368 153.265 20.542C153.265 20.776 153.352 20.944 153.526 21.046C153.7 21.148 153.931 21.199 154.219 21.199ZM156.924 23.665V17.428C157.062 17.38 157.227 17.338 157.419 17.302C157.617 17.266 157.824 17.236 158.04 17.212C158.262 17.188 158.481 17.176 158.697 17.176C159.177 17.176 159.585 17.278 159.921 17.482C160.257 17.68 160.512 17.965 160.686 18.337C160.866 18.703 160.956 19.138 160.956 19.642C160.956 20.122 160.884 20.548 160.74 20.92C160.596 21.292 160.38 21.583 160.092 21.793C159.81 22.003 159.462 22.108 159.048 22.108C158.862 22.108 158.685 22.087 158.517 22.045C158.349 22.003 158.187 21.943 158.031 21.865V23.665H156.924ZM158.841 21.136C159.063 21.136 159.246 21.076 159.39 20.956C159.534 20.836 159.639 20.668 159.705 20.452C159.777 20.23 159.813 19.969 159.813 19.669C159.813 19.207 159.717 18.838 159.525 18.562C159.333 18.28 159.057 18.139 158.697 18.139C158.559 18.139 158.43 18.148 158.31 18.166C158.196 18.178 158.103 18.187 158.031 18.193V20.902C158.121 20.968 158.241 21.025 158.391 21.073C158.541 21.115 158.691 21.136 158.841 21.136ZM161.511 22V15.196L162.618 15.007V17.329C162.732 17.287 162.864 17.251 163.014 17.221C163.17 17.191 163.305 17.176 163.419 17.176C163.893 17.176 164.262 17.269 164.526 17.455C164.796 17.635 164.985 17.887 165.093 18.211C165.207 18.529 165.264 18.904 165.264 19.336V22H164.148V19.507C164.148 19.183 164.121 18.925 164.067 18.733C164.013 18.535 163.926 18.391 163.806 18.301C163.692 18.205 163.527 18.157 163.311 18.157C163.179 18.157 163.047 18.172 162.915 18.202C162.789 18.232 162.69 18.259 162.618 18.283V22H161.511ZM168.815 22.108C168.395 22.108 168.065 22.03 167.825 21.874C167.585 21.712 167.414 21.481 167.312 21.181C167.216 20.881 167.168 20.515 167.168 20.083V18.211H165.845V17.284H168.284V20.2C168.284 20.422 168.308 20.602 168.356 20.74C168.41 20.872 168.488 20.971 168.59 21.037C168.698 21.097 168.833 21.127 168.995 21.127C169.127 21.127 169.274 21.112 169.436 21.082C169.598 21.046 169.766 20.986 169.94 20.902L170.084 21.811C169.952 21.877 169.814 21.934 169.67 21.982C169.532 22.024 169.388 22.054 169.238 22.072C169.094 22.096 168.953 22.108 168.815 22.108ZM167.555 16.573C167.357 16.573 167.183 16.504 167.033 16.366C166.889 16.228 166.817 16.045 166.817 15.817C166.817 15.583 166.889 15.4 167.033 15.268C167.183 15.13 167.357 15.061 167.555 15.061C167.759 15.061 167.933 15.13 168.077 15.268C168.227 15.4 168.302 15.583 168.302 15.817C168.302 16.045 168.227 16.228 168.077 16.366C167.933 16.504 167.759 16.573 167.555 16.573ZM173.158 22.108C172.552 22.108 172.051 22.003 171.655 21.793C171.265 21.583 170.971 21.295 170.773 20.929C170.575 20.557 170.476 20.128 170.476 19.642C170.476 19.276 170.533 18.943 170.647 18.643C170.761 18.337 170.932 18.073 171.16 17.851C171.388 17.629 171.667 17.458 171.997 17.338C172.333 17.218 172.717 17.158 173.149 17.158C173.419 17.158 173.665 17.179 173.887 17.221C174.115 17.257 174.349 17.32 174.589 17.41L174.346 18.319C174.19 18.265 174.025 18.223 173.851 18.193C173.683 18.157 173.479 18.139 173.239 18.139C172.867 18.139 172.561 18.199 172.321 18.319C172.081 18.439 171.901 18.61 171.781 18.832C171.667 19.054 171.61 19.324 171.61 19.642C171.61 19.96 171.67 20.23 171.79 20.452C171.916 20.668 172.102 20.836 172.348 20.956C172.6 21.07 172.915 21.127 173.293 21.127C173.491 21.127 173.695 21.115 173.905 21.091C174.121 21.061 174.322 21.013 174.508 20.947L174.67 21.874C174.544 21.922 174.403 21.964 174.247 22C174.097 22.03 173.932 22.054 173.752 22.072C173.572 22.096 173.374 22.108 173.158 22.108ZM176.898 22.108C176.646 22.108 176.415 22.087 176.205 22.045C175.995 22.009 175.803 21.964 175.629 21.91C175.461 21.85 175.311 21.793 175.179 21.739L175.368 20.785C175.596 20.875 175.842 20.962 176.106 21.046C176.376 21.124 176.652 21.163 176.934 21.163C177.258 21.163 177.504 21.136 177.672 21.082C177.846 21.022 177.933 20.914 177.933 20.758C177.933 20.632 177.882 20.53 177.78 20.452C177.684 20.368 177.558 20.296 177.402 20.236C177.246 20.176 177.075 20.116 176.889 20.056C176.709 20.002 176.523 19.939 176.331 19.867C176.145 19.795 175.974 19.705 175.818 19.597C175.662 19.489 175.536 19.354 175.44 19.192C175.344 19.03 175.296 18.832 175.296 18.598C175.296 18.334 175.365 18.094 175.503 17.878C175.641 17.656 175.857 17.482 176.151 17.356C176.445 17.224 176.823 17.158 177.285 17.158C177.579 17.158 177.858 17.182 178.122 17.23C178.392 17.272 178.623 17.332 178.815 17.41L178.635 18.373C178.563 18.343 178.458 18.307 178.32 18.265C178.182 18.223 178.023 18.187 177.843 18.157C177.669 18.121 177.486 18.103 177.294 18.103C176.964 18.103 176.733 18.145 176.601 18.229C176.469 18.307 176.403 18.409 176.403 18.535C176.403 18.637 176.448 18.727 176.538 18.805C176.628 18.883 176.745 18.952 176.889 19.012C177.039 19.066 177.201 19.123 177.375 19.183C177.561 19.249 177.75 19.321 177.942 19.399C178.14 19.477 178.32 19.573 178.482 19.687C178.65 19.795 178.782 19.933 178.878 20.101C178.98 20.263 179.031 20.467 179.031 20.713C179.031 20.983 178.962 21.223 178.824 21.433C178.686 21.643 178.461 21.808 178.149 21.928C177.837 22.048 177.42 22.108 176.898 22.108Z" fill="#242632"/>
</svg>
