<svg width="90" height="90" viewBox="0 0 90 90" fill="none" xmlns="http://www.w3.org/2000/svg">
<rect width="90" height="90" rx="20" fill="#103339"/>
<path fill-rule="evenodd" clip-rule="evenodd" d="M57.7753 50.7297L26.6283 44.5247L29.933 38.8006C30.8093 37.0288 32.5529 32.9973 31.4663 30.9212C30.8933 29.8247 29.5504 28.3239 28.1536 26.9189L29.8268 23H41.4071C49.5937 30.0581 45.3835 38.0085 45.3835 38.0085L44.9871 38.8006H32.5371L32.2684 39.2661L63.4013 45.4711L60.112 51.1952C59.2356 52.9712 57.4923 56.9985 58.5787 59.0788C59.1521 60.1753 60.4945 61.6761 61.8914 63.0769L60.2182 67H48.6378C40.4517 59.9419 44.6614 51.9915 44.6614 51.9915L45.0579 51.1952H57.5078L57.7753 50.7297ZM51.2506 38.8006L53.697 33.9062H70L67.1863 38.8006H51.2506ZM38.7946 51.1952L36.348 56.0938H20L22.8272 51.1952H38.7946Z" fill="#F7F8FA"/>
</svg>
