<svg width="23" height="24" viewBox="0 0 23 24" fill="none" xmlns="http://www.w3.org/2000/svg">
<rect y="0.75" width="22.5" height="22.5" rx="5" fill="#103339"/>
<path fill-rule="evenodd" clip-rule="evenodd" d="M14.4438 13.4195L6.65706 11.8822L7.48325 10.4641C7.70234 10.0251 8.13824 9.02629 7.86657 8.51192C7.72332 8.24027 7.38761 7.86843 7.03839 7.52034L7.4567 6.54942H10.3518C12.3984 8.29809 11.3459 10.2678 11.3459 10.2678L11.2468 10.4641H8.13427L8.0671 10.5794L15.8503 12.1167L15.028 13.5349C14.8089 13.9749 14.3731 14.9727 14.6447 15.4881C14.788 15.7597 15.1236 16.1316 15.4728 16.4786L15.0545 17.4506H12.1595C10.1129 15.7019 11.1654 13.7322 11.1654 13.7322L11.2645 13.5349H14.3769L14.4438 13.4195ZM12.8127 10.4641L13.4242 9.25147H17.5L16.7966 10.4641H12.8127ZM9.69866 13.5349L9.087 14.7485H5L5.7068 13.5349H9.69866Z" fill="#F7F8FA"/>
</svg>
