<svg width="45" height="46" viewBox="0 0 45 46" fill="none" xmlns="http://www.w3.org/2000/svg">
<rect y="0.5" width="45" height="45" rx="10" fill="#103339"/>
<path fill-rule="evenodd" clip-rule="evenodd" d="M28.8877 25.8648L13.3141 22.7623L14.9665 19.9003C15.4047 19.0144 16.2765 16.9987 15.7331 15.9606C15.4466 15.4124 14.7752 14.6619 14.0768 13.9594L14.9134 12H20.7036C24.7968 15.5291 22.6918 19.5043 22.6918 19.5043L22.4935 19.9003H16.2685L16.1342 20.133L31.7006 23.2356L30.056 26.0976C29.6178 26.9856 28.7462 28.9992 29.2893 30.0394C29.5761 30.5876 30.2473 31.3381 30.9457 32.0385L30.1091 34H24.3189C20.2258 30.4709 22.3307 26.4957 22.3307 26.4957L22.5289 26.0976H28.7539L28.8877 25.8648ZM25.6253 19.9003L26.8485 17.4531H35L33.5932 19.9003H25.6253ZM19.3973 26.0976L18.174 28.5469H10L11.4136 26.0976H19.3973Z" fill="#F7F8FA"/>
</svg>
