<svg width="209" height="64" viewBox="0 0 209 64" fill="none" xmlns="http://www.w3.org/2000/svg">
<path d="M50 61V15H38V3H3V61H50Z" fill="white"/>
<path d="M49 13V12H48V11H47V10H46V9H45V8H44V7H43V6H42V5H41V4H40V13H49Z" fill="white"/>
<path fill-rule="evenodd" clip-rule="evenodd" d="M53 64H0V0H41V1H42V2H43V3H44V4H45V5H46V6H47V7H48V8H49V9H50V10H51V11H52V12H53V64ZM50 15V61H3V3H38V15H50ZM49 12V13H40V4H41V5H42V6H43V7H44V8H45V9H46V10H47V11H48V12H49Z" fill="#242632"/>
<path d="M11 45V43.998H12.002V45H11ZM9.99805 43.998V42H11V43.998H9.99805ZM11 40.002V37.002H12.002V40.002H11ZM6.99805 45V36H11V37.002H8.00005V40.002H11V40.998H9.99805V42H9.00205V40.998H8.00005V45H6.99805Z" fill="#242632"/>
<path d="M13.9942 45V43.998H15.9922V45H13.9942ZM15.9922 43.998V43.002H16.9942V43.998H15.9922ZM16.9942 43.002V42H17.9902V43.002H16.9942ZM14.9902 42V40.998H15.9922V42H14.9902ZM12.9922 43.998V40.002H13.9942V42H14.9902V43.002H13.9942V43.998H12.9922ZM15.9922 40.998V40.002H16.9942V40.998H15.9922ZM13.9942 40.002V39H14.9902V40.002H13.9942ZM16.9942 40.002V39H17.9902V40.002H16.9942ZM14.9902 39V37.998H16.9942V39H14.9902Z" fill="#242632"/>
<path d="M19.9942 45V43.998H22.9942V45H19.9942ZM18.9922 43.998V43.002H19.9942V43.998H18.9922ZM22.9942 43.998V42H23.9902V43.998H22.9942ZM19.9942 42V40.998H22.9942V42H19.9942ZM18.9922 40.998V39H19.9942V40.998H18.9922ZM22.9942 40.002V39H23.9902V40.002H22.9942ZM19.9942 39V37.998H22.9942V39H19.9942Z" fill="#242632"/>
<path d="M25.9942 45V43.998H27.9922V45H25.9942ZM27.9922 43.998V43.002H28.9942V43.998H27.9922ZM28.9942 43.002V42H29.9902V43.002H28.9942ZM26.9902 42V40.998H27.9922V42H26.9902ZM24.9922 43.998V40.002H25.9942V42H26.9902V43.002H25.9942V43.998H24.9922ZM27.9922 40.998V40.002H28.9942V40.998H27.9922ZM25.9942 40.002V39H26.9902V40.002H25.9942ZM28.9942 40.002V39H29.9902V40.002H28.9942ZM26.9902 39V37.998H28.9942V39H26.9902Z" fill="#242632"/>
<path d="M31.9942 45V43.998H32.9902V45H31.9942ZM32.9902 43.998V43.002H33.9922V43.998H32.9902ZM36.9922 43.002V42H37.9942V43.002H36.9922ZM30.9922 43.998V40.002H31.9942V43.998H30.9922ZM31.9942 40.002V39H32.9902V40.002H31.9942ZM34.9942 45V43.002H33.9922V42H34.9942V39H32.9902V37.998H35.9902V43.002H36.9922V43.998H35.9902V45H34.9942Z" fill="#242632"/>
<path d="M38.9903 45V40.002H37.9883V39H38.9903V37.998H39.9863V39H40.9883V40.002H39.9863V45H38.9903ZM40.9883 39V37.998H42.9863V39H40.9883Z" fill="#242632"/>
<path d="M8.002 56V54.998H10V56H8.002ZM10 54.998V54.002H11.002V54.998H10ZM11.002 54.002V53H11.998V54.002H11.002ZM7 54.998V51.002H8.002V54.998H7ZM8.002 51.002V50H8.998V51.002H8.002ZM8.998 50V48.998H11.998V50H8.998Z" fill="#242632"/>
<path d="M19 54.998V54.002H20.002V54.998H19ZM17.002 56V50H17.998V54.998H19V56H17.002ZM14.998 50V48.998H17.002V50H14.998ZM13 56V47H14.002V50H14.998V51.002H14.002V56H13Z" fill="#242632"/>
<path fill-rule="evenodd" clip-rule="evenodd" d="M96 5H97V6H98V7H99V8H100V9H129V10H130V11H131V64H66V11H67V10H68V9H73V8H74V7H75V6H76V5H77V4H96V5ZM70 18V19H69V61H128V19H127V18H70ZM78 8H77V9H76V10H75V11H74V12H70V13H69V17H70V16H127V17H128V13H127V12H98V11H97V10H96V9H95V8H94V7H78V8Z" fill="#242632"/>
<path d="M70 18V19H69V61H128V19H127V18H70Z" fill="white"/>
<path d="M78 8H77V9H76V10H75V11H74V12H70V13H69V17H70V16H127V17H128V13H127V12H98V11H97V10H96V9H95V8H94V7H78V8Z" fill="white"/>
<path d="M75 33V31.998H79.002V33H75ZM73.998 31.998V31.002H75V31.998H73.998ZM79.002 31.998V28.998H76.998V28.002H79.998V31.998H79.002ZM73.002 31.002V25.998H73.998V31.002H73.002ZM73.998 25.998V25.002H75V25.998H73.998ZM79.002 25.998V25.002H79.998V25.998H79.002ZM75 25.002V24H79.002V25.002H75Z" fill="#242632"/>
<path d="M82.002 33V28.002H81V27H82.002V25.998H82.998V27H84V28.002H82.998V33H82.002ZM84 27V25.998H85.998V27H84Z" fill="#242632"/>
<path d="M86.9941 33V31.998H87.9901V33H86.9941ZM87.9901 31.998V31.002H88.9921V31.998H87.9901ZM91.9921 31.002V30H92.9941V31.002H91.9921ZM85.9921 31.998V28.002H86.9941V31.998H85.9921ZM86.9941 28.002V27H87.9901V28.002H86.9941ZM89.9941 33V31.002H88.9921V30H89.9941V27H87.9901V25.998H90.9901V31.002H91.9921V31.998H90.9901V33H89.9941Z" fill="#242632"/>
<path d="M96.9902 31.998V31.002H97.9862V31.998H96.9902ZM97.9862 31.002V27H98.9882V31.002H97.9862ZM93.9902 36V28.002H92.9882V27H93.9902V25.998H94.9862V27H95.9882V28.002H94.9862V31.998H96.9902V33H94.9862V36H93.9902ZM95.9882 27V25.998H97.9862V27H95.9882Z" fill="#242632"/>
<path d="M105.984 31.998V31.002H106.986V31.998H105.984ZM103.986 33V27H104.982V31.998H105.984V33H103.986ZM101.982 27V25.998H103.986V27H101.982ZM99.9843 33V24H100.986V27H101.982V28.002H100.986V33H99.9843Z" fill="#242632"/>
<path d="M109.98 31.998V31.002H110.982V31.998H109.98ZM107.982 33V28.002H106.98V27H107.982V25.998H108.978V31.998H109.98V33H107.982ZM107.982 25.002V24H108.978V25.002H107.982Z" fill="#242632"/>
<path d="M111.979 33V31.998H113.977V33H111.979ZM113.977 31.998V31.002H114.979V31.998H113.977ZM114.979 31.002V30H115.975V31.002H114.979ZM110.977 31.998V28.002H111.979V31.998H110.977ZM111.979 28.002V27H112.975V28.002H111.979ZM112.975 27V25.998H115.975V27H112.975Z" fill="#242632"/>
<path d="M117.979 33V31.998H120.979V33H117.979ZM116.977 31.998V31.002H117.979V31.998H116.977ZM120.979 31.998V30H121.975V31.998H120.979ZM117.979 30V28.998H120.979V30H117.979ZM116.977 28.998V27H117.979V28.998H116.977ZM120.979 28.002V27H121.975V28.002H120.979ZM117.979 27V25.998H120.979V27H117.979Z" fill="#242632"/>
<path fill-rule="evenodd" clip-rule="evenodd" d="M174 5H175V6H176V7H177V8H178V9H207V10H208V11H209V64H144V11H145V10H146V9H151V8H152V7H153V6H154V5H155V4H174V5ZM148 18V19H147V61H206V19H205V18H148ZM156 8H155V9H154V10H153V11H152V12H148V13H147V17H148V16H205V17H206V13H205V12H176V11H175V10H174V9H173V8H172V7H156V8Z" fill="#242632"/>
<path d="M148 18V19H147V61H206V19H205V18H148Z" fill="white"/>
<path d="M156 8H155V9H154V10H153V11H152V12H148V13H147V17H148V16H205V17H206V13H205V12H176V11H175V10H174V9H173V8H172V7H156V8Z" fill="white"/>
<path d="M151.002 33V24H154.998V25.002H151.998V28.002H154.002V28.998H151.998V31.998H154.998V33H151.002Z" fill="#242632"/>
<path d="M156 33V31.998H157.002V33H156ZM160.002 33V31.998H160.998V33H160.002ZM157.002 31.998V30H157.998V28.998H157.002V27H157.998V28.002H159V27H160.002V28.998H159V30H160.002V31.998H159V31.002H157.998V31.998H157.002ZM156 27V25.998H157.002V27H156ZM160.002 27V25.998H160.998V27H160.002Z" fill="#242632"/>
<path d="M166.002 31.998V31.002H166.998V31.998H166.002ZM166.998 31.002V27H168V31.002H166.998ZM163.002 36V28.002H162V27H163.002V25.998H163.998V27H165V28.002H163.998V31.998H166.002V33H163.998V36H163.002ZM165 27V25.998H166.998V27H165Z" fill="#242632"/>
<path d="M169.998 33V31.998H171.996V33H169.998ZM171.996 31.998V31.002H172.998V31.998H171.996ZM172.998 31.002V30H173.994V31.002H172.998ZM170.994 30V28.998H171.996V30H170.994ZM168.996 31.998V28.002H169.998V30H170.994V31.002H169.998V31.998H168.996ZM171.996 28.998V28.002H172.998V28.998H171.996ZM169.998 28.002V27H170.994V28.002H169.998ZM172.998 28.002V27H173.994V28.002H172.998ZM170.994 27V25.998H172.998V27H170.994Z" fill="#242632"/>
<path d="M175.998 33V28.002H174.996V27H175.998V25.998H176.994V27H177.996V28.002H176.994V33H175.998ZM177.996 27V25.998H179.994V27H177.996Z" fill="#242632"/>
<path d="M182.988 31.998V31.002H183.99V31.998H182.988ZM180.99 33V28.002H179.988V27H180.99V25.998H181.986V31.998H182.988V33H180.99ZM180.99 25.002V24H181.986V25.002H180.99Z" fill="#242632"/>
<path d="M184.986 33V31.998H186.984V33H184.986ZM186.984 31.998V31.002H187.986V31.998H186.984ZM187.986 31.002V30H188.982V31.002H187.986ZM185.982 30V28.998H186.984V30H185.982ZM183.984 31.998V28.002H184.986V30H185.982V31.002H184.986V31.998H183.984ZM186.984 28.998V28.002H187.986V28.998H186.984ZM184.986 28.002V27H185.982V28.002H184.986ZM187.986 28.002V27H188.982V28.002H187.986ZM185.982 27V25.998H187.986V27H185.982Z" fill="#242632"/>
<path d="M196.986 31.998V31.002H197.982V31.998H196.986ZM194.982 33V27H195.984V31.998H196.986V33H194.982ZM190.986 33V27H189.984V25.998H191.982V27H192.984V28.002H191.982V33H190.986ZM192.984 27V25.998H194.982V27H192.984Z" fill="#242632"/>
<path d="M151.002 44V42.998H153V44H151.002ZM153 42.998V42.002H154.002V42.998H153ZM154.002 42.002V41H154.998V42.002H154.002ZM150 42.998V39.002H151.002V42.998H150ZM151.002 39.002V38H151.998V39.002H151.002ZM151.998 38V36.998H154.998V38H151.998Z" fill="#242632"/>
<path d="M157.002 44V42.998H159V44H157.002ZM159 42.998V42.002H160.002V42.998H159ZM160.002 42.002V41H160.998V42.002H160.002ZM157.998 41V39.998H159V41H157.998ZM156 42.998V39.002H157.002V41H157.998V42.002H157.002V42.998H156ZM159 39.998V39.002H160.002V39.998H159ZM157.002 39.002V38H157.998V39.002H157.002ZM160.002 39.002V38H160.998V39.002H160.002ZM157.998 38V36.998H160.002V38H157.998Z" fill="#242632"/>
</svg>
