<svg width="43" height="38" viewBox="0 0 43 38" fill="none" xmlns="http://www.w3.org/2000/svg">
<path fill-rule="evenodd" clip-rule="evenodd" d="M32.2313 23.8181L6.06774 18.6003L8.84371 13.7869C9.57985 12.297 11.0445 8.90685 10.1317 7.16099C9.65035 6.23897 8.52235 4.97691 7.349 3.79544L8.7545 0.5H18.482C25.3587 6.43525 21.8221 13.1208 21.8221 13.1208L21.4891 13.7869H11.0311L10.8054 14.1783L36.9571 19.3962L34.1941 24.2096C33.4579 25.703 31.9936 29.0896 32.9061 30.839C33.3878 31.761 34.5154 33.0231 35.6888 34.201L34.2833 37.5H24.5558C17.6794 31.5648 21.2156 24.8792 21.2156 24.8792L21.5486 24.2096H32.0065L32.2313 23.8181ZM26.7505 13.7869L28.8054 9.67113H42.5L40.1365 13.7869H26.7505ZM16.2875 24.2096L14.2323 28.3289H0.5L2.87485 24.2096H16.2875Z" fill="#103339"/>
</svg>
