<svg width="189" height="48" viewBox="0 0 189 48" fill="none" xmlns="http://www.w3.org/2000/svg">
<path d="M1 7H2V6V5H3.5H5H6V4H7V3H8V2H9V1H22V2H23V3H24V4H25V5H48V6H49V7H50V45V46H49V47H2V46H1V45V7Z" fill="white"/>
<path d="M2 7H1V45M2 7V6M2 7V11M9 2H8V3H7V4H6V5H5M9 2V1H22V2M9 2H22M2 6V5H3.5M2 6H3.5M5 5V6H3.5M5 5H3.5M3.5 5V6M22 2H23V3M22 2V3M23 3H24V4M23 3V4M24 4H25V5M24 4V5M25 5H48V6M25 5V6H48M48 6H49V7M49 7H50V45M49 7V11M49 46H50V45M49 46V47H2V46M49 46H2M2 46H1V45M1 45H2M50 45H49M49 45H2M49 45V11M2 45V11M2 11H3H4M4 11V10H47V11M4 11H47M47 11H48H49" stroke="#242632"/>
<path d="M6.854 22.072C6.638 22.072 6.425 22.06 6.215 22.036C6.005 22.012 5.78 21.973 5.54 21.919V15.844C5.804 15.784 6.053 15.745 6.287 15.727C6.527 15.703 6.752 15.691 6.962 15.691C7.514 15.691 7.997 15.799 8.411 16.015C8.825 16.231 9.149 16.573 9.383 17.041C9.617 17.509 9.734 18.121 9.734 18.877C9.734 19.651 9.608 20.272 9.356 20.74C9.11 21.208 8.771 21.547 8.339 21.757C7.907 21.967 7.412 22.072 6.854 22.072ZM6.971 21.1C7.355 21.1 7.667 21.013 7.907 20.839C8.147 20.659 8.321 20.404 8.429 20.074C8.537 19.738 8.591 19.339 8.591 18.877C8.591 18.451 8.543 18.073 8.447 17.743C8.351 17.413 8.192 17.152 7.97 16.96C7.748 16.762 7.445 16.663 7.061 16.663C6.995 16.663 6.926 16.666 6.854 16.672C6.788 16.672 6.722 16.678 6.656 16.69V21.082C6.704 21.088 6.755 21.094 6.809 21.1C6.869 21.1 6.923 21.1 6.971 21.1ZM12.9701 22.108C12.5501 22.108 12.2201 22.03 11.9801 21.874C11.7401 21.712 11.5691 21.481 11.4671 21.181C11.3711 20.881 11.3231 20.515 11.3231 20.083V18.211H10.0001V17.284H12.4391V20.2C12.4391 20.422 12.4631 20.602 12.5111 20.74C12.5651 20.872 12.6431 20.971 12.7451 21.037C12.8531 21.097 12.9881 21.127 13.1501 21.127C13.2821 21.127 13.4291 21.112 13.5911 21.082C13.7531 21.046 13.9211 20.986 14.0951 20.902L14.2391 21.811C14.1071 21.877 13.9691 21.934 13.8251 21.982C13.6871 22.024 13.5431 22.054 13.3931 22.072C13.2491 22.096 13.1081 22.108 12.9701 22.108ZM11.7101 16.573C11.5121 16.573 11.3381 16.504 11.1881 16.366C11.0441 16.228 10.9721 16.045 10.9721 15.817C10.9721 15.583 11.0441 15.4 11.1881 15.268C11.3381 15.13 11.5121 15.061 11.7101 15.061C11.9141 15.061 12.0881 15.13 12.2321 15.268C12.3821 15.4 12.4571 15.583 12.4571 15.817C12.4571 16.045 12.3821 16.228 12.2321 16.366C12.0881 16.504 11.9141 16.573 11.7101 16.573ZM15.1263 22V17.572C15.4563 17.452 15.7923 17.359 16.1343 17.293C16.4823 17.221 16.8723 17.185 17.3043 17.185C17.4123 17.185 17.5503 17.191 17.7183 17.203C17.8863 17.215 18.0603 17.233 18.2403 17.257C18.4203 17.281 18.5853 17.317 18.7353 17.365L18.5373 18.391C18.4233 18.361 18.2913 18.334 18.1413 18.31C17.9973 18.286 17.8563 18.268 17.7183 18.256C17.5803 18.244 17.4543 18.238 17.3403 18.238C17.1603 18.238 16.9803 18.25 16.8003 18.274C16.6203 18.292 16.4373 18.325 16.2513 18.373V22H15.1263ZM21.6474 22.108C21.1134 22.108 20.6544 22.012 20.2704 21.82C19.8924 21.628 19.6014 21.352 19.3974 20.992C19.1994 20.626 19.1004 20.185 19.1004 19.669C19.1004 19.249 19.1604 18.883 19.2804 18.571C19.4064 18.259 19.5744 17.998 19.7844 17.788C20.0004 17.578 20.2404 17.422 20.5044 17.32C20.7684 17.212 21.0414 17.158 21.3234 17.158C21.7794 17.158 22.1604 17.251 22.4664 17.437C22.7784 17.617 23.0154 17.887 23.1774 18.247C23.3394 18.601 23.4204 19.045 23.4204 19.579C23.4204 19.645 23.4174 19.717 23.4114 19.795C23.4114 19.873 23.4084 19.939 23.4024 19.993H20.2434C20.2554 20.353 20.3934 20.632 20.6574 20.83C20.9214 21.028 21.2724 21.127 21.7104 21.127C21.9684 21.127 22.2084 21.103 22.4304 21.055C22.6584 21.001 22.8414 20.95 22.9794 20.902L23.1324 21.847C22.9524 21.919 22.7364 21.979 22.4844 22.027C22.2384 22.081 21.9594 22.108 21.6474 22.108ZM20.2524 19.183H22.3224C22.3224 18.985 22.2864 18.805 22.2144 18.643C22.1484 18.481 22.0404 18.352 21.8904 18.256C21.7464 18.154 21.5634 18.103 21.3414 18.103C21.1134 18.103 20.9214 18.154 20.7654 18.256C20.6154 18.358 20.4984 18.493 20.4144 18.661C20.3304 18.823 20.2764 18.997 20.2524 19.183ZM26.4855 22.108C25.8795 22.108 25.3785 22.003 24.9825 21.793C24.5925 21.583 24.2985 21.295 24.1005 20.929C23.9025 20.557 23.8035 20.128 23.8035 19.642C23.8035 19.276 23.8605 18.943 23.9745 18.643C24.0885 18.337 24.2595 18.073 24.4875 17.851C24.7155 17.629 24.9945 17.458 25.3245 17.338C25.6605 17.218 26.0445 17.158 26.4765 17.158C26.7465 17.158 26.9925 17.179 27.2145 17.221C27.4425 17.257 27.6765 17.32 27.9165 17.41L27.6735 18.319C27.5175 18.265 27.3525 18.223 27.1785 18.193C27.0105 18.157 26.8065 18.139 26.5665 18.139C26.1945 18.139 25.8885 18.199 25.6485 18.319C25.4085 18.439 25.2285 18.61 25.1085 18.832C24.9945 19.054 24.9375 19.324 24.9375 19.642C24.9375 19.96 24.9975 20.23 25.1175 20.452C25.2435 20.668 25.4295 20.836 25.6755 20.956C25.9275 21.07 26.2425 21.127 26.6205 21.127C26.8185 21.127 27.0225 21.115 27.2325 21.091C27.4485 21.061 27.6495 21.013 27.8355 20.947L27.9975 21.874C27.8715 21.922 27.7305 21.964 27.5745 22C27.4245 22.03 27.2595 22.054 27.0795 22.072C26.8995 22.096 26.7015 22.108 26.4855 22.108ZM31.2067 22.108C30.7987 22.108 30.4627 22.057 30.1987 21.955C29.9347 21.847 29.7397 21.655 29.6137 21.379C29.4877 21.103 29.4247 20.719 29.4247 20.227V18.211H28.3717V17.284H29.4247V16.051L30.5407 15.871V17.284H32.5297V18.211H30.5407V20.209C30.5407 20.461 30.5707 20.653 30.6307 20.785C30.6907 20.917 30.7777 21.007 30.8917 21.055C31.0117 21.103 31.1557 21.127 31.3237 21.127C31.5577 21.127 31.7557 21.112 31.9177 21.082C32.0797 21.046 32.2627 20.98 32.4667 20.884L32.6287 21.847C32.4427 21.925 32.2237 21.988 31.9717 22.036C31.7197 22.084 31.4647 22.108 31.2067 22.108ZM35.0368 22.126C34.6048 22.126 34.2238 22.021 33.8938 21.811C33.5638 21.601 33.3058 21.31 33.1198 20.938C32.9338 20.56 32.8408 20.125 32.8408 19.633C32.8408 19.135 32.9338 18.703 33.1198 18.337C33.3118 17.965 33.5728 17.677 33.9028 17.473C34.2388 17.263 34.6168 17.158 35.0368 17.158C35.4748 17.158 35.8588 17.263 36.1888 17.473C36.5188 17.677 36.7768 17.965 36.9628 18.337C37.1488 18.703 37.2418 19.135 37.2418 19.633C37.2418 20.125 37.1488 20.56 36.9628 20.938C36.7768 21.31 36.5188 21.601 36.1888 21.811C35.8648 22.021 35.4808 22.126 35.0368 22.126ZM35.0278 21.145C35.2558 21.145 35.4478 21.082 35.6038 20.956C35.7658 20.83 35.8888 20.656 35.9728 20.434C36.0568 20.206 36.0988 19.942 36.0988 19.642C36.0988 19.342 36.0568 19.078 35.9728 18.85C35.8948 18.622 35.7778 18.448 35.6218 18.328C35.4658 18.202 35.2708 18.139 35.0368 18.139C34.8148 18.139 34.6228 18.202 34.4608 18.328C34.3048 18.448 34.1848 18.622 34.1008 18.85C34.0168 19.078 33.9748 19.342 33.9748 19.642C33.9748 19.942 34.0138 20.206 34.0918 20.434C34.1758 20.656 34.2958 20.83 34.4518 20.956C34.6078 21.082 34.7998 21.145 35.0278 21.145ZM5.954 32V27.572C6.284 27.452 6.62 27.359 6.962 27.293C7.31 27.221 7.7 27.185 8.132 27.185C8.24 27.185 8.378 27.191 8.546 27.203C8.714 27.215 8.888 27.233 9.068 27.257C9.248 27.281 9.413 27.317 9.563 27.365L9.365 28.391C9.251 28.361 9.119 28.334 8.969 28.31C8.825 28.286 8.684 28.268 8.546 28.256C8.408 28.244 8.282 28.238 8.168 28.238C7.988 28.238 7.808 28.25 7.628 28.274C7.448 28.292 7.265 28.325 7.079 28.373V32H5.954ZM10.7471 33.692C10.5671 33.692 10.3931 33.674 10.2251 33.638C10.0571 33.602 9.92513 33.563 9.82913 33.521L10.0451 32.594C10.1531 32.648 10.2611 32.687 10.3691 32.711C10.4831 32.735 10.5941 32.747 10.7021 32.747C10.9721 32.747 11.1851 32.666 11.3411 32.504C11.5031 32.348 11.6381 32.144 11.7461 31.892C11.5361 31.478 11.3261 31.028 11.1161 30.542C10.9061 30.05 10.7051 29.531 10.5131 28.985C10.3211 28.439 10.1471 27.872 9.99113 27.284H11.1701C11.2541 27.62 11.3531 27.986 11.4671 28.382C11.5871 28.778 11.7161 29.174 11.8541 29.57C11.9921 29.966 12.1361 30.335 12.2861 30.677C12.4001 30.329 12.5051 29.966 12.6011 29.588C12.7031 29.21 12.7991 28.826 12.8891 28.436C12.9851 28.046 13.0781 27.662 13.1681 27.284H14.3111C14.1551 27.866 13.9961 28.439 13.8341 29.003C13.6721 29.567 13.4981 30.11 13.3121 30.632C13.1321 31.154 12.9311 31.661 12.7091 32.153C12.5471 32.507 12.3791 32.798 12.2051 33.026C12.0311 33.254 11.8271 33.422 11.5931 33.53C11.3591 33.638 11.0771 33.692 10.7471 33.692Z" fill="#242632"/>
<path d="M70 7H71V6V5H72.5H74H75V4H76V3H77V2H78V1H91V2H92V3H93V4H94V5H117V6H118V7H119V45V46H118V47H71V46H70V45V7Z" fill="white"/>
<path d="M71 7H70V45M71 7V6M71 7V11M78 2H77V3H76V4H75V5H74M78 2V1H91V2M78 2H91M71 6V5H72.5M71 6H72.5M74 5V6H72.5M74 5H72.5M72.5 5V6M91 2H92V3M91 2V3M92 3H93V4M92 3V4M93 4H94V5M93 4V5M94 5H117V6M94 5V6H117M117 6H118V7M118 7H119V45M118 7V11M118 46H119V45M118 46V47H71V46M118 46H71M71 46H70V45M70 45H71M119 45H118M118 45H71M118 45V11M71 45V11M71 11H72H73M73 11V10H116V11M73 11H116M116 11H117H118" stroke="#242632"/>
<path d="M74.549 22V15.853C74.705 15.811 74.879 15.778 75.071 15.754C75.269 15.73 75.461 15.715 75.647 15.709C75.839 15.697 76.001 15.691 76.133 15.691C76.859 15.691 77.429 15.859 77.843 16.195C78.257 16.525 78.464 17.032 78.464 17.716C78.464 18.088 78.383 18.421 78.221 18.715C78.059 19.003 77.804 19.228 77.456 19.39C77.606 19.612 77.765 19.87 77.933 20.164C78.107 20.458 78.275 20.764 78.437 21.082C78.599 21.4 78.737 21.706 78.851 22H77.672C77.564 21.718 77.441 21.442 77.303 21.172C77.171 20.902 77.03 20.641 76.88 20.389C76.736 20.131 76.586 19.885 76.43 19.651C76.4 19.657 76.367 19.66 76.331 19.66C76.295 19.66 76.262 19.66 76.232 19.66H75.665V22H74.549ZM75.665 18.724H76.016C76.316 18.724 76.562 18.688 76.754 18.616C76.946 18.544 77.09 18.433 77.186 18.283C77.282 18.127 77.33 17.932 77.33 17.698C77.33 17.446 77.279 17.245 77.177 17.095C77.075 16.945 76.934 16.837 76.754 16.771C76.58 16.699 76.382 16.663 76.16 16.663C76.082 16.663 75.995 16.666 75.899 16.672C75.809 16.672 75.731 16.678 75.665 16.69V18.724ZM81.4751 22.108C80.9411 22.108 80.4821 22.012 80.0981 21.82C79.7201 21.628 79.4291 21.352 79.2251 20.992C79.0271 20.626 78.9281 20.185 78.9281 19.669C78.9281 19.249 78.9881 18.883 79.1081 18.571C79.2341 18.259 79.4021 17.998 79.6121 17.788C79.8281 17.578 80.0681 17.422 80.3321 17.32C80.5961 17.212 80.8691 17.158 81.1511 17.158C81.6071 17.158 81.9881 17.251 82.2941 17.437C82.6061 17.617 82.8431 17.887 83.0051 18.247C83.1671 18.601 83.2481 19.045 83.2481 19.579C83.2481 19.645 83.2451 19.717 83.2391 19.795C83.2391 19.873 83.2361 19.939 83.2301 19.993H80.0711C80.0831 20.353 80.2211 20.632 80.4851 20.83C80.7491 21.028 81.1001 21.127 81.5381 21.127C81.7961 21.127 82.0361 21.103 82.2581 21.055C82.4861 21.001 82.6691 20.95 82.8071 20.902L82.9601 21.847C82.7801 21.919 82.5641 21.979 82.3121 22.027C82.0661 22.081 81.7871 22.108 81.4751 22.108ZM80.0801 19.183H82.1501C82.1501 18.985 82.1141 18.805 82.0421 18.643C81.9761 18.481 81.8681 18.352 81.7181 18.256C81.5741 18.154 81.3911 18.103 81.1691 18.103C80.9411 18.103 80.7491 18.154 80.5931 18.256C80.4431 18.358 80.3261 18.493 80.2421 18.661C80.1581 18.823 80.1041 18.997 80.0801 19.183ZM85.4673 22.108C85.2153 22.108 84.9843 22.087 84.7743 22.045C84.5643 22.009 84.3723 21.964 84.1983 21.91C84.0303 21.85 83.8803 21.793 83.7483 21.739L83.9373 20.785C84.1653 20.875 84.4113 20.962 84.6753 21.046C84.9453 21.124 85.2213 21.163 85.5033 21.163C85.8273 21.163 86.0733 21.136 86.2413 21.082C86.4153 21.022 86.5023 20.914 86.5023 20.758C86.5023 20.632 86.4513 20.53 86.3493 20.452C86.2533 20.368 86.1273 20.296 85.9713 20.236C85.8153 20.176 85.6443 20.116 85.4583 20.056C85.2783 20.002 85.0923 19.939 84.9003 19.867C84.7143 19.795 84.5433 19.705 84.3873 19.597C84.2313 19.489 84.1053 19.354 84.0093 19.192C83.9133 19.03 83.8653 18.832 83.8653 18.598C83.8653 18.334 83.9343 18.094 84.0723 17.878C84.2103 17.656 84.4263 17.482 84.7203 17.356C85.0143 17.224 85.3923 17.158 85.8543 17.158C86.1483 17.158 86.4273 17.182 86.6913 17.23C86.9613 17.272 87.1923 17.332 87.3843 17.41L87.2043 18.373C87.1323 18.343 87.0273 18.307 86.8893 18.265C86.7513 18.223 86.5923 18.187 86.4123 18.157C86.2383 18.121 86.0553 18.103 85.8633 18.103C85.5333 18.103 85.3023 18.145 85.1703 18.229C85.0383 18.307 84.9723 18.409 84.9723 18.535C84.9723 18.637 85.0173 18.727 85.1073 18.805C85.1973 18.883 85.3143 18.952 85.4583 19.012C85.6083 19.066 85.7703 19.123 85.9443 19.183C86.1303 19.249 86.3193 19.321 86.5113 19.399C86.7093 19.477 86.8893 19.573 87.0513 19.687C87.2193 19.795 87.3513 19.933 87.4473 20.101C87.5493 20.263 87.6003 20.467 87.6003 20.713C87.6003 20.983 87.5313 21.223 87.3933 21.433C87.2553 21.643 87.0303 21.808 86.7183 21.928C86.4063 22.048 85.9893 22.108 85.4673 22.108ZM90.6474 22.108C90.1134 22.108 89.6544 22.012 89.2704 21.82C88.8924 21.628 88.6014 21.352 88.3974 20.992C88.1994 20.626 88.1004 20.185 88.1004 19.669C88.1004 19.249 88.1604 18.883 88.2804 18.571C88.4064 18.259 88.5744 17.998 88.7844 17.788C89.0004 17.578 89.2404 17.422 89.5044 17.32C89.7684 17.212 90.0414 17.158 90.3234 17.158C90.7794 17.158 91.1604 17.251 91.4664 17.437C91.7784 17.617 92.0154 17.887 92.1774 18.247C92.3394 18.601 92.4204 19.045 92.4204 19.579C92.4204 19.645 92.4174 19.717 92.4114 19.795C92.4114 19.873 92.4084 19.939 92.4024 19.993H89.2434C89.2554 20.353 89.3934 20.632 89.6574 20.83C89.9214 21.028 90.2724 21.127 90.7104 21.127C90.9684 21.127 91.2084 21.103 91.4304 21.055C91.6584 21.001 91.8414 20.95 91.9794 20.902L92.1324 21.847C91.9524 21.919 91.7364 21.979 91.4844 22.027C91.2384 22.081 90.9594 22.108 90.6474 22.108ZM89.2524 19.183H91.3224C91.3224 18.985 91.2864 18.805 91.2144 18.643C91.1484 18.481 91.0404 18.352 90.8904 18.256C90.7464 18.154 90.5634 18.103 90.3414 18.103C90.1134 18.103 89.9214 18.154 89.7654 18.256C89.6154 18.358 89.4984 18.493 89.4144 18.661C89.3304 18.823 89.2764 18.997 89.2524 19.183ZM94.8285 22.108C94.5405 22.108 94.2735 22.081 94.0275 22.027C93.7875 21.979 93.5775 21.898 93.3975 21.784C93.2175 21.664 93.0765 21.505 92.9745 21.307C92.8785 21.103 92.8305 20.857 92.8305 20.569C92.8305 20.197 92.9235 19.906 93.1095 19.696C93.3015 19.486 93.5475 19.336 93.8475 19.246C94.1475 19.15 94.4655 19.102 94.8015 19.102C94.9695 19.102 95.1255 19.111 95.2695 19.129C95.4195 19.141 95.5575 19.162 95.6835 19.192V19.012C95.6835 18.85 95.6505 18.7 95.5845 18.562C95.5245 18.424 95.4195 18.313 95.2695 18.229C95.1195 18.145 94.9155 18.103 94.6575 18.103C94.4055 18.103 94.1715 18.121 93.9555 18.157C93.7395 18.193 93.5685 18.235 93.4425 18.283L93.2895 17.374C93.4275 17.32 93.6345 17.272 93.9105 17.23C94.1925 17.182 94.4835 17.158 94.7835 17.158C95.2875 17.158 95.6835 17.236 95.9715 17.392C96.2595 17.548 96.4635 17.767 96.5835 18.049C96.7035 18.331 96.7635 18.664 96.7635 19.048V21.901C96.5775 21.943 96.3105 21.988 95.9625 22.036C95.6205 22.084 95.2425 22.108 94.8285 22.108ZM94.8915 21.199C95.0415 21.199 95.1855 21.196 95.3235 21.19C95.4675 21.178 95.5875 21.166 95.6835 21.154V19.975C95.5995 19.963 95.4945 19.951 95.3685 19.939C95.2425 19.921 95.1225 19.912 95.0085 19.912C94.8225 19.912 94.6485 19.93 94.4865 19.966C94.3245 20.002 94.1925 20.065 94.0905 20.155C93.9885 20.239 93.9375 20.368 93.9375 20.542C93.9375 20.776 94.0245 20.944 94.1985 21.046C94.3725 21.148 94.6035 21.199 94.8915 21.199ZM74.954 32V27.572C75.284 27.452 75.62 27.359 75.962 27.293C76.31 27.221 76.7 27.185 77.132 27.185C77.24 27.185 77.378 27.191 77.546 27.203C77.714 27.215 77.888 27.233 78.068 27.257C78.248 27.281 78.413 27.317 78.563 27.365L78.365 28.391C78.251 28.361 78.119 28.334 77.969 28.31C77.825 28.286 77.684 28.268 77.546 28.256C77.408 28.244 77.282 28.238 77.168 28.238C76.988 28.238 76.808 28.25 76.628 28.274C76.448 28.292 76.265 28.325 76.079 28.373V32H74.954ZM81.7271 32.108C81.1211 32.108 80.6201 32.003 80.2241 31.793C79.8341 31.583 79.5401 31.295 79.3421 30.929C79.1441 30.557 79.0451 30.128 79.0451 29.642C79.0451 29.276 79.1021 28.943 79.2161 28.643C79.3301 28.337 79.5011 28.073 79.7291 27.851C79.9571 27.629 80.2361 27.458 80.5661 27.338C80.9021 27.218 81.2861 27.158 81.7181 27.158C81.9881 27.158 82.2341 27.179 82.4561 27.221C82.6841 27.257 82.9181 27.32 83.1581 27.41L82.9151 28.319C82.7591 28.265 82.5941 28.223 82.4201 28.193C82.2521 28.157 82.0481 28.139 81.8081 28.139C81.4361 28.139 81.1301 28.199 80.8901 28.319C80.6501 28.439 80.4701 28.61 80.3501 28.832C80.2361 29.054 80.1791 29.324 80.1791 29.642C80.1791 29.96 80.2391 30.23 80.3591 30.452C80.4851 30.668 80.6711 30.836 80.9171 30.956C81.1691 31.07 81.4841 31.127 81.8621 31.127C82.0601 31.127 82.2641 31.115 82.4741 31.091C82.6901 31.061 82.8911 31.013 83.0771 30.947L83.2391 31.874C83.1131 31.922 82.9721 31.964 82.8161 32C82.6661 32.03 82.5011 32.054 82.3211 32.072C82.1411 32.096 81.9431 32.108 81.7271 32.108ZM83.8383 32V25.196L84.9453 25.007V27.329C85.0593 27.287 85.1913 27.251 85.3413 27.221C85.4973 27.191 85.6323 27.176 85.7463 27.176C86.2203 27.176 86.5893 27.269 86.8533 27.455C87.1233 27.635 87.3123 27.887 87.4203 28.211C87.5343 28.529 87.5913 28.904 87.5913 29.336V32H86.4753V29.507C86.4753 29.183 86.4483 28.925 86.3943 28.733C86.3403 28.535 86.2533 28.391 86.1333 28.301C86.0193 28.205 85.8543 28.157 85.6383 28.157C85.5063 28.157 85.3743 28.172 85.2423 28.202C85.1163 28.232 85.0173 28.259 84.9453 28.283V32H83.8383ZM90.6474 32.108C90.1134 32.108 89.6544 32.012 89.2704 31.82C88.8924 31.628 88.6014 31.352 88.3974 30.992C88.1994 30.626 88.1004 30.185 88.1004 29.669C88.1004 29.249 88.1604 28.883 88.2804 28.571C88.4064 28.259 88.5744 27.998 88.7844 27.788C89.0004 27.578 89.2404 27.422 89.5044 27.32C89.7684 27.212 90.0414 27.158 90.3234 27.158C90.7794 27.158 91.1604 27.251 91.4664 27.437C91.7784 27.617 92.0154 27.887 92.1774 28.247C92.3394 28.601 92.4204 29.045 92.4204 29.579C92.4204 29.645 92.4174 29.717 92.4114 29.795C92.4114 29.873 92.4084 29.939 92.4024 29.993H89.2434C89.2554 30.353 89.3934 30.632 89.6574 30.83C89.9214 31.028 90.2724 31.127 90.7104 31.127C90.9684 31.127 91.2084 31.103 91.4304 31.055C91.6584 31.001 91.8414 30.95 91.9794 30.902L92.1324 31.847C91.9524 31.919 91.7364 31.979 91.4844 32.027C91.2384 32.081 90.9594 32.108 90.6474 32.108ZM89.2524 29.183H91.3224C91.3224 28.985 91.2864 28.805 91.2144 28.643C91.1484 28.481 91.0404 28.352 90.8904 28.256C90.7464 28.154 90.5634 28.103 90.3414 28.103C90.1134 28.103 89.9214 28.154 89.7654 28.256C89.6154 28.358 89.4984 28.493 89.4144 28.661C89.3304 28.823 89.2764 28.997 89.2524 29.183ZM94.6395 32.108C94.3875 32.108 94.1565 32.087 93.9465 32.045C93.7365 32.009 93.5445 31.964 93.3705 31.91C93.2025 31.85 93.0525 31.793 92.9205 31.739L93.1095 30.785C93.3375 30.875 93.5835 30.962 93.8475 31.046C94.1175 31.124 94.3935 31.163 94.6755 31.163C94.9995 31.163 95.2455 31.136 95.4135 31.082C95.5875 31.022 95.6745 30.914 95.6745 30.758C95.6745 30.632 95.6235 30.53 95.5215 30.452C95.4255 30.368 95.2995 30.296 95.1435 30.236C94.9875 30.176 94.8165 30.116 94.6305 30.056C94.4505 30.002 94.2645 29.939 94.0725 29.867C93.8865 29.795 93.7155 29.705 93.5595 29.597C93.4035 29.489 93.2775 29.354 93.1815 29.192C93.0855 29.03 93.0375 28.832 93.0375 28.598C93.0375 28.334 93.1065 28.094 93.2445 27.878C93.3825 27.656 93.5985 27.482 93.8925 27.356C94.1865 27.224 94.5645 27.158 95.0265 27.158C95.3205 27.158 95.5995 27.182 95.8635 27.23C96.1335 27.272 96.3645 27.332 96.5565 27.41L96.3765 28.373C96.3045 28.343 96.1995 28.307 96.0615 28.265C95.9235 28.223 95.7645 28.187 95.5845 28.157C95.4105 28.121 95.2275 28.103 95.0355 28.103C94.7055 28.103 94.4745 28.145 94.3425 28.229C94.2105 28.307 94.1445 28.409 94.1445 28.535C94.1445 28.637 94.1895 28.727 94.2795 28.805C94.3695 28.883 94.4865 28.952 94.6305 29.012C94.7805 29.066 94.9425 29.123 95.1165 29.183C95.3025 29.249 95.4915 29.321 95.6835 29.399C95.8815 29.477 96.0615 29.573 96.2235 29.687C96.3915 29.795 96.5235 29.933 96.6195 30.101C96.7215 30.263 96.7725 30.467 96.7725 30.713C96.7725 30.983 96.7035 31.223 96.5655 31.433C96.4275 31.643 96.2025 31.808 95.8905 31.928C95.5785 32.048 95.1615 32.108 94.6395 32.108Z" fill="#242632"/>
<path d="M139 7H140V6V5H141.5H143H144V4H145V3H146V2H147V1H160V2H161V3H162V4H163V5H186V6H187V7H188V45V46H187V47H140V46H139V45V7Z" fill="white"/>
<path d="M140 7H139V45M140 7V6M140 7V11M147 2H146V3H145V4H144V5H143M147 2V1H160V2M147 2H160M140 6V5H141.5M140 6H141.5M143 5V6H141.5M143 5H141.5M141.5 5V6M160 2H161V3M160 2V3M161 3H162V4M161 3V4M162 4H163V5M162 4V5M163 5H186V6M163 5V6H186M186 6H187V7M187 7H188V45M187 7V11M187 46H188V45M187 46V47H140V46M187 46H140M140 46H139V45M139 45H140M188 45H187M187 45H140M187 45V11M140 45V11M140 11H141H142M142 11V10H185V11M142 11H185M185 11H186H187" stroke="#242632"/>
<path d="M145.871 22.135C145.355 22.135 144.908 22.012 144.53 21.766C144.152 21.52 143.858 21.157 143.648 20.677C143.438 20.191 143.333 19.591 143.333 18.877C143.333 18.169 143.45 17.575 143.684 17.095C143.924 16.609 144.245 16.243 144.647 15.997C145.049 15.745 145.496 15.619 145.988 15.619C146.312 15.619 146.585 15.649 146.807 15.709C147.029 15.769 147.209 15.832 147.347 15.898C147.485 15.964 147.584 16.018 147.644 16.06L147.338 16.969C147.188 16.867 147.005 16.78 146.789 16.708C146.573 16.63 146.351 16.591 146.123 16.591C145.751 16.591 145.442 16.687 145.196 16.879C144.95 17.071 144.767 17.338 144.647 17.68C144.527 18.022 144.467 18.421 144.467 18.877C144.467 19.369 144.524 19.786 144.638 20.128C144.752 20.464 144.92 20.722 145.142 20.902C145.37 21.076 145.646 21.163 145.97 21.163C146.072 21.163 146.171 21.154 146.267 21.136C146.363 21.118 146.447 21.103 146.519 21.091V18.787H147.626V21.847C147.488 21.901 147.266 21.961 146.96 22.027C146.654 22.099 146.291 22.135 145.871 22.135ZM148.54 22V17.572C148.87 17.452 149.206 17.359 149.548 17.293C149.896 17.221 150.286 17.185 150.718 17.185C150.826 17.185 150.964 17.191 151.132 17.203C151.3 17.215 151.474 17.233 151.654 17.257C151.834 17.281 151.999 17.317 152.149 17.365L151.951 18.391C151.837 18.361 151.705 18.334 151.555 18.31C151.411 18.286 151.27 18.268 151.132 18.256C150.994 18.244 150.868 18.238 150.754 18.238C150.574 18.238 150.394 18.25 150.214 18.274C150.034 18.292 149.851 18.325 149.665 18.373V22H148.54ZM154.656 22.108C154.368 22.108 154.101 22.081 153.855 22.027C153.615 21.979 153.405 21.898 153.225 21.784C153.045 21.664 152.904 21.505 152.802 21.307C152.706 21.103 152.658 20.857 152.658 20.569C152.658 20.197 152.751 19.906 152.937 19.696C153.129 19.486 153.375 19.336 153.675 19.246C153.975 19.15 154.293 19.102 154.629 19.102C154.797 19.102 154.953 19.111 155.097 19.129C155.247 19.141 155.385 19.162 155.511 19.192V19.012C155.511 18.85 155.478 18.7 155.412 18.562C155.352 18.424 155.247 18.313 155.097 18.229C154.947 18.145 154.743 18.103 154.485 18.103C154.233 18.103 153.999 18.121 153.783 18.157C153.567 18.193 153.396 18.235 153.27 18.283L153.117 17.374C153.255 17.32 153.462 17.272 153.738 17.23C154.02 17.182 154.311 17.158 154.611 17.158C155.115 17.158 155.511 17.236 155.799 17.392C156.087 17.548 156.291 17.767 156.411 18.049C156.531 18.331 156.591 18.664 156.591 19.048V21.901C156.405 21.943 156.138 21.988 155.79 22.036C155.448 22.084 155.07 22.108 154.656 22.108ZM154.719 21.199C154.869 21.199 155.013 21.196 155.151 21.19C155.295 21.178 155.415 21.166 155.511 21.154V19.975C155.427 19.963 155.322 19.951 155.196 19.939C155.07 19.921 154.95 19.912 154.836 19.912C154.65 19.912 154.476 19.93 154.314 19.966C154.152 20.002 154.02 20.065 153.918 20.155C153.816 20.239 153.765 20.368 153.765 20.542C153.765 20.776 153.852 20.944 154.026 21.046C154.2 21.148 154.431 21.199 154.719 21.199ZM157.424 23.665V17.428C157.562 17.38 157.727 17.338 157.919 17.302C158.117 17.266 158.324 17.236 158.54 17.212C158.762 17.188 158.981 17.176 159.197 17.176C159.677 17.176 160.085 17.278 160.421 17.482C160.757 17.68 161.012 17.965 161.186 18.337C161.366 18.703 161.456 19.138 161.456 19.642C161.456 20.122 161.384 20.548 161.24 20.92C161.096 21.292 160.88 21.583 160.592 21.793C160.31 22.003 159.962 22.108 159.548 22.108C159.362 22.108 159.185 22.087 159.017 22.045C158.849 22.003 158.687 21.943 158.531 21.865V23.665H157.424ZM159.341 21.136C159.563 21.136 159.746 21.076 159.89 20.956C160.034 20.836 160.139 20.668 160.205 20.452C160.277 20.23 160.313 19.969 160.313 19.669C160.313 19.207 160.217 18.838 160.025 18.562C159.833 18.28 159.557 18.139 159.197 18.139C159.059 18.139 158.93 18.148 158.81 18.166C158.696 18.178 158.603 18.187 158.531 18.193V20.902C158.621 20.968 158.741 21.025 158.891 21.073C159.041 21.115 159.191 21.136 159.341 21.136ZM162.011 22V15.196L163.118 15.007V17.329C163.232 17.287 163.364 17.251 163.514 17.221C163.67 17.191 163.805 17.176 163.919 17.176C164.393 17.176 164.762 17.269 165.026 17.455C165.296 17.635 165.485 17.887 165.593 18.211C165.707 18.529 165.764 18.904 165.764 19.336V22H164.648V19.507C164.648 19.183 164.621 18.925 164.567 18.733C164.513 18.535 164.426 18.391 164.306 18.301C164.192 18.205 164.027 18.157 163.811 18.157C163.679 18.157 163.547 18.172 163.415 18.202C163.289 18.232 163.19 18.259 163.118 18.283V22H162.011ZM169.315 22.108C168.895 22.108 168.565 22.03 168.325 21.874C168.085 21.712 167.914 21.481 167.812 21.181C167.716 20.881 167.668 20.515 167.668 20.083V18.211H166.345V17.284H168.784V20.2C168.784 20.422 168.808 20.602 168.856 20.74C168.91 20.872 168.988 20.971 169.09 21.037C169.198 21.097 169.333 21.127 169.495 21.127C169.627 21.127 169.774 21.112 169.936 21.082C170.098 21.046 170.266 20.986 170.44 20.902L170.584 21.811C170.452 21.877 170.314 21.934 170.17 21.982C170.032 22.024 169.888 22.054 169.738 22.072C169.594 22.096 169.453 22.108 169.315 22.108ZM168.055 16.573C167.857 16.573 167.683 16.504 167.533 16.366C167.389 16.228 167.317 16.045 167.317 15.817C167.317 15.583 167.389 15.4 167.533 15.268C167.683 15.13 167.857 15.061 168.055 15.061C168.259 15.061 168.433 15.13 168.577 15.268C168.727 15.4 168.802 15.583 168.802 15.817C168.802 16.045 168.727 16.228 168.577 16.366C168.433 16.504 168.259 16.573 168.055 16.573ZM173.658 22.108C173.052 22.108 172.551 22.003 172.155 21.793C171.765 21.583 171.471 21.295 171.273 20.929C171.075 20.557 170.976 20.128 170.976 19.642C170.976 19.276 171.033 18.943 171.147 18.643C171.261 18.337 171.432 18.073 171.66 17.851C171.888 17.629 172.167 17.458 172.497 17.338C172.833 17.218 173.217 17.158 173.649 17.158C173.919 17.158 174.165 17.179 174.387 17.221C174.615 17.257 174.849 17.32 175.089 17.41L174.846 18.319C174.69 18.265 174.525 18.223 174.351 18.193C174.183 18.157 173.979 18.139 173.739 18.139C173.367 18.139 173.061 18.199 172.821 18.319C172.581 18.439 172.401 18.61 172.281 18.832C172.167 19.054 172.11 19.324 172.11 19.642C172.11 19.96 172.17 20.23 172.29 20.452C172.416 20.668 172.602 20.836 172.848 20.956C173.1 21.07 173.415 21.127 173.793 21.127C173.991 21.127 174.195 21.115 174.405 21.091C174.621 21.061 174.822 21.013 175.008 20.947L175.17 21.874C175.044 21.922 174.903 21.964 174.747 22C174.597 22.03 174.432 22.054 174.252 22.072C174.072 22.096 173.874 22.108 173.658 22.108ZM177.398 22.108C177.146 22.108 176.915 22.087 176.705 22.045C176.495 22.009 176.303 21.964 176.129 21.91C175.961 21.85 175.811 21.793 175.679 21.739L175.868 20.785C176.096 20.875 176.342 20.962 176.606 21.046C176.876 21.124 177.152 21.163 177.434 21.163C177.758 21.163 178.004 21.136 178.172 21.082C178.346 21.022 178.433 20.914 178.433 20.758C178.433 20.632 178.382 20.53 178.28 20.452C178.184 20.368 178.058 20.296 177.902 20.236C177.746 20.176 177.575 20.116 177.389 20.056C177.209 20.002 177.023 19.939 176.831 19.867C176.645 19.795 176.474 19.705 176.318 19.597C176.162 19.489 176.036 19.354 175.94 19.192C175.844 19.03 175.796 18.832 175.796 18.598C175.796 18.334 175.865 18.094 176.003 17.878C176.141 17.656 176.357 17.482 176.651 17.356C176.945 17.224 177.323 17.158 177.785 17.158C178.079 17.158 178.358 17.182 178.622 17.23C178.892 17.272 179.123 17.332 179.315 17.41L179.135 18.373C179.063 18.343 178.958 18.307 178.82 18.265C178.682 18.223 178.523 18.187 178.343 18.157C178.169 18.121 177.986 18.103 177.794 18.103C177.464 18.103 177.233 18.145 177.101 18.229C176.969 18.307 176.903 18.409 176.903 18.535C176.903 18.637 176.948 18.727 177.038 18.805C177.128 18.883 177.245 18.952 177.389 19.012C177.539 19.066 177.701 19.123 177.875 19.183C178.061 19.249 178.25 19.321 178.442 19.399C178.64 19.477 178.82 19.573 178.982 19.687C179.15 19.795 179.282 19.933 179.378 20.101C179.48 20.263 179.531 20.467 179.531 20.713C179.531 20.983 179.462 21.223 179.324 21.433C179.186 21.643 178.961 21.808 178.649 21.928C178.337 22.048 177.92 22.108 177.398 22.108Z" fill="#242632"/>
</svg>
