<svg width="1921" height="197" viewBox="0 0 1921 197" fill="none" xmlns="http://www.w3.org/2000/svg">
<path d="M0.499999 171.89L0.499998 158.196C13.94 157.87 27.3416 159.116 40.7816 158.694C49.4792 158.56 57.62 155.204 65.9912 153.286C75.0536 151.157 83.5976 157.39 92.6408 156.297C100.494 154.168 107.098 148.126 115.604 148.337C127.892 148.28 140.468 146.995 152.545 149.546C160.916 155.012 159.764 168.399 169.057 173.232C176.602 176.071 184.801 177.202 191.79 181.499C196.206 184.126 203.617 186.984 205.959 180.329C205.806 171.64 195.937 167.344 193.326 159.442C194.151 153.765 199.854 149.872 205.383 149.968C212.698 156.201 211.316 167.632 217.959 174.326C221.914 176.435 226.561 176.359 230.919 176.646C250.83 177.164 270.702 173.386 290.593 175.285C296.372 175.726 301.959 177.509 307.758 177.778C314.209 176.991 320.084 173.347 326.67 173.194C334.791 175.476 333.274 189.247 325.306 190.973C310.618 195.02 295.585 189.573 280.782 189.19C261.966 188.595 243.092 187.962 224.276 188.979C216.404 189.247 209.818 193.889 202.542 196.267C195.918 198.3 189.159 195.634 182.785 193.965C175.719 191.645 168.231 190.168 161.78 186.332C153.889 179.926 152.18 167.478 141.946 163.623C129.121 159.327 115.95 165.023 103.412 167.709C92.8904 170.375 82.0808 168.61 71.4248 168.169C60.3848 167.536 49.9784 172.312 38.9768 172.312C26.1512 172.58 13.3256 171.66 0.499999 171.89Z" fill="#F7F8F9"/>
<path d="M0.499998 143.907L0.499997 129.83C12.6728 129.619 24.9032 128.851 36.9992 130.673C42.932 131.287 50.4392 132.572 54.8552 127.49C60.7688 120.01 60.7304 109.672 65.8376 101.789C69.6008 97.8573 74.6696 95.4407 78.2984 91.3554C82.7144 87.8264 77.7224 81.3821 73.46 80.2313C66.6824 80.73 60.4616 85.4098 53.492 83.722C35.828 79.7902 18.26 86.3112 0.499995 85.1988L0.499994 69.6251C14.6888 70.0087 28.6664 66.9015 42.8552 67.0934C54.9512 67.055 67.0856 66.5947 79.1816 67.1701C82.0616 67.5729 85.9208 67.3427 87.6104 70.258C89.1656 75.9734 88.3208 82.015 89.4152 87.8073C92.5832 91.3938 98.6312 91.3171 102.126 88.2484C104.18 81.6506 102.625 74.535 104.295 67.8605C108.846 63.104 116.718 64.8685 121.94 67.5728C124.801 75.82 113.626 81.8808 115.738 90.0704C128.967 97.1285 144.116 89.3608 158.113 90.6458C167.482 92.0843 175.546 98.0107 185.07 98.8546C190.83 99.1807 196.398 97.3395 201.927 96.0544C213.889 92.8898 226.35 93.4844 238.599 93.657C246.452 94.0022 254.439 93.7913 262.138 95.5941C266.094 96.3805 270.471 100.562 268.34 104.781C266.727 109.001 261.543 108.31 257.953 108.214C241.422 106.776 224.564 105.261 208.167 108.675C200.91 110.151 194.209 113.987 186.759 114.505C179.233 114.064 172.513 110.228 165.543 107.735C149.012 100.868 130.734 110.113 114.106 103.477C104.43 99.4108 92.9864 98.4327 83.9048 104.57C73.1144 110.842 72.308 124.306 67.8536 134.663C65.0696 142.622 55.6232 144.042 48.3272 144.751C32.3912 145.806 16.4552 143.14 0.499998 143.907Z" fill="#F7F8F9"/>
<path d="M0.499994 54.035L0.499993 36.4666C65.4344 47.84 131.271 33.8006 196.57 39.0942C209.281 40.4943 221.914 36.5049 234.567 37.8859C242.228 38.653 244.801 51.5992 236.526 53.4213C209.166 57.5257 181.614 50.6786 154.234 51.1581C145.268 57.027 156.289 69.3211 150.145 76.8011C145.652 83.4372 131.502 82.6509 131.732 73.0803C134.785 66.4058 139.566 60.652 142.062 53.6898C124.878 49.6813 108.154 58.4463 90.9512 56.4325C60.9224 53.2679 30.6632 53.4597 0.499994 54.035Z" fill="#F7F8F9"/>
<path d="M21.9658 191.593C17.3962 179.299 43.4314 177.285 40.9546 190.154C39.1306 198.19 26.0362 197.864 21.9658 191.593Z" fill="#F7F8F9"/>
<path d="M79.5464 141.939C78.5864 132.196 85.3256 123.258 91.7384 116.546C99.5912 109.583 109.383 116.431 117.678 118.56C136.455 121.321 156.289 117.255 174.452 123.987C180.788 126.193 182.151 133.462 183.802 139.12C185.3 146.83 187.681 155.327 184.225 162.864C180.538 166.048 175.585 162.73 172.839 159.834C168.5 153.658 170.862 145.257 167.329 138.736C165.332 135.764 161.492 135.035 158.151 134.651C145.306 133.404 132.385 135.859 119.521 134.632C113.3 134.037 108.73 127.075 102.202 128.84C97.3064 132.58 96.9992 139.868 92.2184 143.742C88.1864 145.833 82.5992 145.622 79.5464 141.939Z" fill="#F7F8F9"/>
<path d="M162.49 76.4608C160.474 72.8359 160.724 66.0463 165.735 65.1449C174.798 63.7064 183.418 68.2903 192.423 68.5588C205.959 69 219.322 65.4134 232.878 66.0655C243.399 66.5066 252.865 72.3372 263.463 72.4523C271.354 73.5647 281.377 71.5124 287.137 78.3595C291.092 84.497 293.05 94.8348 286.407 99.8406C279.361 102.2 277.076 94.106 273.658 89.8289C269.78 83.3079 261.294 82.8476 254.593 81.6393C229.46 79.2802 204.327 85.034 179.175 82.9243C173.281 82.253 166.561 81.2749 162.49 76.4608Z" fill="#F7F8F9"/>
<path d="M193.172 136.086C189.735 129.604 195.822 123.965 201.831 122.891C221.473 118.058 241.902 121.414 261.851 119.707C275.175 118.364 286.1 107.816 299.79 108.449C305.07 108.813 307.758 114.471 307.95 119.17C308.372 122.968 308.257 128.338 303.899 129.757C299.367 130.812 294.74 129.124 290.228 128.587C283.028 126.65 276.366 131.081 269.339 131.829C255.265 133.325 241.057 130.217 227.022 132.519C218.094 133.651 210.875 139.999 201.985 141.226C198.26 141.898 194.305 139.769 193.172 136.086Z" fill="#F7F8F9"/>
<path d="M219.918 155.155C217.46 150.609 221.377 146.006 225.889 145.239C240.327 142.055 254.939 147.234 269.492 145.93C284.66 145.143 300.961 141.499 315.323 148.116C321.524 150.705 322.926 162.405 315.399 163.978C304.724 165.09 295.201 157.936 284.545 158.204C267.899 158.588 251.521 163.498 234.798 162.251C229.307 161.772 222.855 160.372 219.918 155.155Z" fill="#F7F8F9"/>
<path d="M249.294 56.9694C245.972 53.3828 249.102 46.6508 253.902 46.3439C261.044 45.8644 267.994 48.2811 275.137 48.2235C321.159 48.9523 367.201 41.3764 413.166 46.1138C425.108 47.1111 436.033 52.7115 447.86 54.2075C455.694 55.1281 463.201 51.8101 470.996 51.8868C489.697 51.9827 507.649 59.386 526.427 58.4271C535.835 57.9859 545.338 53.9198 554.631 57.1995C559.143 57.9667 564.5 61.0354 568.647 57.8516C572.334 54.265 569.07 49.3551 568.148 45.3082C566.938 41.6641 564.884 35.2198 570.721 34.8554C586.657 34.6061 602.708 39.4968 618.644 36.1596C627.745 33.743 633.639 23.6162 643.642 24.0765C654.702 25.2081 654.394 40.7819 664.628 43.3136C672.212 45.0589 680.122 45.5192 687.898 44.9438C694.023 44.5219 696.942 38.2501 700.993 34.491C705.966 28.2576 715.047 28.7179 720.75 23.5203C728.564 16.7115 734.823 7.86975 744.212 3.01733C747.975 0.85005 753.486 0.984327 755.962 4.99286C758.977 10.3248 757.345 16.9417 759.726 22.4846C763.066 27.2219 773.031 28.085 774.894 21.6023C773.914 15.369 770.497 9.88363 768.98 3.80372C771.476 -0.895267 777.543 -0.358249 781.921 0.792523C790.81 4.89694 782.612 21.1612 793.671 22.4079C803.578 22.6572 803.002 7.06422 812.871 6.73817C819.63 6.89161 824.737 12.1276 830.555 14.947C836.718 18.7446 844.225 17.3636 851.06 17.0951C862.484 16.5389 874.215 14.736 885.486 17.6321C890.228 18.361 891.803 26.4163 886.657 27.7589C878.267 30.655 869.243 29.0248 860.564 29.1591C853.825 28.8714 848.026 32.9374 841.556 34.0307C832.321 33.4169 826.273 23.0408 816.596 24.3066C810.106 26.0136 807.284 33.5512 801.083 35.7568C793.038 36.2747 785.166 31.3264 777.121 33.9731C768.711 36.5624 759.611 40.1106 754.503 47.6865C750.644 52.6732 756.385 61.7067 762.51 58.0818C772.475 53.7281 781.172 43.467 793.23 47.2645C807.015 50.6785 803.579 68.7073 812.507 76.8969C818.324 81.1356 826.311 80.2725 832.263 84.2427C835.739 87.484 836.487 93.7557 832.859 97.1888C829.614 100.373 824.602 100.641 820.417 99.663C813.774 97.6683 811.163 87.1196 803.463 88.8266C798.145 92.7008 795.073 100.2 787.931 101.044C777.025 103.192 767.214 96.7094 756.711 95.3476C746.247 96.0189 736.954 103.211 726.202 102.118C719.674 101.965 716.103 91.3582 721.998 87.9443C730.446 84.281 740.833 87.3881 748.705 82.0753C752.737 77.6257 751.739 70.6636 749.338 65.6194C743.905 55.0706 733.249 48.0893 722.267 44.2725C716.775 42.6231 710.19 41.2038 705.044 44.5602C701.127 47.0727 699.514 54.3418 704.698 56.394C713.434 59.808 723.553 57.6406 732.097 61.8218C735.745 63.5287 736.455 67.8633 735.86 71.4499C732.999 76.053 726.874 75.3433 722.286 74.5762C711.284 72.3322 700.532 68.362 691.201 62.0328C683.252 56.816 672.923 54.0157 663.649 56.816C654.414 61.3999 652.014 72.9268 643.835 78.8149C639.361 82.1521 632.411 86.0647 627.399 81.7301C623.406 76.6476 624.865 68.8799 628.839 64.2192C634.388 59.8847 642.107 59.9805 647.924 56.0104C654.951 51.273 648.27 36.8884 640.014 40.9545C633.639 43.467 629.07 49.3551 622.388 51.158C610.33 52.0402 598.119 48.0509 586.158 50.9087C581.358 52.0211 577.786 56.8159 578.593 61.7643C579.515 67.6715 582.932 72.9267 583.566 78.9107C583.028 84.0125 577.018 85.5469 572.756 84.5687C568.148 80.215 566.228 72.7925 559.585 70.8937C552.193 68.4963 543.937 66.751 536.353 69.2251C531.591 70.4334 530.727 77.4915 534.836 79.9465C541.422 82.5932 548.967 81.4041 555.418 84.4153C560.353 88.3087 561.351 95.1942 565.518 99.7589C571.028 103.019 576.212 97.0546 581.108 94.964C587.924 89.9006 596.315 94.1393 603.706 95.1366C621.274 98.493 641.454 98.8574 656.276 87.3497C662.574 83.1302 664.494 75.3626 669.083 69.7046C673.172 64.3727 682.062 69.321 682.561 75.0748C681.754 81.0205 678.414 86.3908 678.279 92.4515C679.143 98.0519 683.329 102.866 688.532 104.957C693.831 106.874 699.553 106.779 705.063 107.565C715.086 108.601 723.802 114.911 733.959 115.237C741.812 115.563 749.05 111.765 756.826 111.42C764.737 111.65 772.129 115.275 780.059 115.352C797.914 115.16 815.713 109.099 833.55 112.648C842.497 114.144 847.7 123.752 857.031 124.059C871.412 124.98 882.932 113.702 897.159 113.357C923.886 111.132 953.108 119.917 977.627 105.398C984.443 100.603 993.044 101.907 1000.9 101.274C1009.69 101.101 1018.48 99.8164 1027.28 100.449C1033.23 105.781 1032.02 117.174 1025.59 121.585C1017.58 123.388 1010.92 116.1 1002.97 115.908C982.196 113.875 965.358 129.947 945.025 130.849C926.9 132.23 909.255 124.328 891.131 127.224C883.547 128.432 880.071 136.258 874.119 140.151C867.207 141.417 860.276 135.797 853.614 138.655C846.452 144.447 842.977 153.807 835.162 158.909C827.809 164.029 818.631 150.911 825.409 145.425C829.883 141.283 836.238 139.959 840.75 135.874C843.63 131.405 838.83 125.67 833.934 126.303C814.004 126.572 794.132 130.254 774.164 128.912C765.87 128.394 757.575 124.443 749.319 127.224C743.483 128.509 737.703 131.539 731.617 130.178C715.354 127.071 700.628 117.979 684.039 116.483C673.537 117.481 678.721 132.575 670.465 136.334C662.862 138.463 658.004 129.334 658.945 122.889C659.329 115.141 669.14 113.76 672.078 107.469C673.959 102.329 671.137 94.7722 664.801 95.0791C655.431 96.4408 654.97 110.058 645.678 111.497C635.482 112.705 625.172 112.782 614.9 112.724C606.145 112.859 598.446 107.872 589.863 107.143C582.298 107.431 574.638 110.461 569.147 115.697C562.369 123.215 568.398 135.088 561.889 142.663C556.014 148.897 544.763 142.606 545.627 134.493C546.51 125.766 556.955 120.78 556.359 111.535C554.631 101.274 545.108 92.0104 534.318 92.5858C523.354 93.1036 512.929 98.1478 501.85 97.0546C491.175 96.0189 480.5 94.6955 469.921 92.9118C466.638 92.5474 462.702 90.5719 463.009 86.6784C462.068 80.3108 469.153 76.6284 474.625 78.1819C490.139 80.8287 506.286 87.5607 521.934 81.826C527.521 79.9656 526.081 72.0253 521.108 70.4334C512.967 67.8058 504.308 71.4116 496.014 69.6854C483.687 67.9209 470.919 62.5506 458.535 66.5591C449.569 70.6252 457.172 83.2262 450.164 88.7499C445.326 92.7967 438.241 94.1968 434.939 99.9315C434.862 103.077 437.108 105.877 440.007 106.874C447.956 107.258 454.983 99.9699 463.047 102.808C484.686 108.773 508.513 114.028 530.343 106.165C534.778 104.42 541.076 106.261 541.921 111.478C543.034 116.675 539.866 123.292 534.087 123.714C499.354 126.725 465.198 116.426 430.523 117.289C419.483 117.155 409.978 125.997 398.804 123.868C389.55 120.262 385.402 108.543 374.862 107.162C364.474 104.573 356.295 114.22 346.081 113.587C337.114 113.606 328.11 114.048 319.182 113.223C312.673 112.763 310.906 102.291 317.319 100.238C329.742 96.4984 342.97 101.197 355.566 98.2821C359.137 97.5149 362.727 94.3503 361.402 90.3417C361.076 85.6428 356.334 82.996 351.995 83.1878C342.913 83.418 333.966 85.3743 324.865 85.2208C316.379 84.8948 312.001 94.9257 303.706 95.3476C294.644 91.7611 298.062 75.8804 307.297 74.6337C320.66 71.776 334.369 71.0663 347.962 70.2608C353.857 70.28 360.423 69.3786 365.684 72.6391C373.249 78.6423 369.466 91.7802 378.586 96.5367C384.289 99.8356 394.81 98.6656 395.137 90.5143C394.906 84.0125 386.958 83.4563 382.734 80.33C378.414 78.719 378.951 73.2144 380.986 69.9731C388.705 66.8468 395.943 73.0035 403.508 73.8282C409.402 73.2336 415.124 70.7403 421.153 71.354C424.686 73.7323 425.223 79.0066 422.075 81.9603C416.199 87.9251 407.367 89.7856 401.435 95.712C398.497 99.2219 397.211 105.225 400.705 108.812C405.102 111.612 410.881 110.288 415.22 108.025C422.708 103.499 425.435 94.6955 430.311 87.9252C434.074 82.3247 439.969 78.3354 442.983 72.2171C445.383 68.5346 440.929 65.2358 437.799 64.0658C412.705 54.4953 385.556 63.126 359.77 58.3695C325.345 53.6705 291.035 66.7126 256.647 60.671C253.94 60.0765 251.175 59.0792 249.294 56.9694ZM730.407 34.3567C732.865 41.549 743.002 42.1436 748.436 38.0392C754.618 33.9923 753.294 21.8709 745.498 20.6817C738.26 20.3557 729.524 26.5314 730.407 34.3567ZM760.897 80.6334C762.402 84.3092 766.732 85.002 770.247 85.5645C770.363 85.5831 770.478 85.6016 770.593 85.6201C777.601 86.1187 785.338 86.6174 791.694 83.0308C800.065 77.5646 795.86 62.2978 785.914 61.7607C779.137 64.465 772.532 67.5721 765.985 70.7367C762.164 72.4054 759.591 76.4714 760.897 80.6334Z" fill="#F7F8F9"/>
<path d="M316.551 137.509C313.383 132.983 315.841 126.174 321.217 124.774C329.05 121.36 342.99 125.867 340.225 136.378C336.711 145.757 321.889 144.644 316.551 137.509Z" fill="#F7F8F9"/>
<path d="M331.508 162.711C328.013 156.977 334.157 150.129 340.225 150.59C348.711 150.321 351.092 161.867 359.54 162.021C367.277 161.733 374.535 157.072 382.407 158.684C392.045 160.275 401.473 163.747 411.38 163.287C430.58 162.347 449.741 159.892 468.999 160.256C488.468 160.812 507.053 168.139 526.484 168.561C531.745 168.599 535.047 162.136 532.282 157.725C530.458 153.083 525.293 151.549 520.724 151.951C493.652 152.354 467.117 145.565 440.103 145.124C425.261 145.277 411.073 152.776 396.116 150.379C388.877 150.014 387.841 138.814 394.196 136.397C401.741 134.613 409.767 137.337 417.217 134.498C447.61 125.503 478.676 136.531 509.261 138.2C516.346 138.641 523.297 135.63 530.362 136.723C538.388 139.274 540.02 148.327 542.497 155.231C543.706 159.221 546.509 164.092 551.424 163.306C560.871 161.503 564.423 148.557 574.637 148.921C583.162 151.261 588.673 159.7 597.505 161.234C603.975 161.522 610.272 159.489 616.743 159.412C630.202 158.664 643.565 162.251 656.948 161.503C661.882 157.207 663.015 149.65 668.756 146.217C672.077 146.083 677.012 147.464 676.589 151.702C676.359 157.514 674.458 163.133 674.401 168.964C675.937 171.822 679.373 171.457 682.08 170.901C690.087 168.465 696.5 161.733 705.12 161.215C711.034 160.314 716.909 166.892 714.625 172.608C709.825 176.847 702.951 176.252 697.076 177.556C690.106 178.343 686.362 185.516 679.949 187.491C670.753 188.584 670.081 173.759 661.133 174.468C647.002 174.852 632.89 174.794 618.778 174.871C610.445 174.794 602.228 176.808 593.933 176.425C587.309 174.181 582.951 167.986 576.385 165.646C568.82 165.416 566.266 175.293 559.277 176.674C553.46 177.096 547.815 174.507 542.036 175.178C535.623 177.499 530.113 182.965 522.817 182.255C502.138 181.546 482.036 175.255 461.3 175.063C426.778 175.063 392.026 180.337 357.658 175.063C348.193 173.26 337.767 170.594 331.508 162.711Z" fill="#F7F8F9"/>
<path d="M351.054 139.213C348.174 134.725 350.113 128.377 354.586 125.691C361.614 121.184 371.406 120.647 378.759 124.675C385.69 128.607 385.172 140.076 378.01 143.471C369.524 147.709 357.486 146.597 351.054 139.213Z" fill="#F7F8F9"/>
<path d="M577.402 133.654C575.252 122.99 589.575 119.058 597.524 121.935C607.565 124.121 611.098 137.988 604.858 145.43C594.605 148.038 584.276 140.692 577.402 133.654Z" fill="#F7F8F9"/>
<path d="M594.606 78.1041C589.345 71.5447 595.067 61.4179 603.207 61.6481C611.041 60.0945 619.067 67.2677 616.839 75.3614C614.9 85.4307 599.943 85.143 594.606 78.1041Z" fill="#F7F8F9"/>
<path d="M617.741 145.258C613.69 139.255 615.649 129.665 622.81 127.038C632.679 123.144 645.313 125.561 652.647 133.386C656.084 137.184 657.159 145.565 651.457 147.733C644.199 148.25 637.46 142.592 630.202 145.297C626.209 145.757 621.101 148.749 617.741 145.258Z" fill="#F7F8F9"/>
<path d="M683.271 145.021C681.543 140.706 682.523 134.127 687.995 133.322C698.67 132.094 708.711 136.831 718.811 139.536C723.956 141.204 729.409 141.78 734.497 143.659C738.74 147.975 737.895 157.181 731.214 158.466C721.307 160.595 714.913 148.78 705.025 150.161C697.902 149.778 686.612 153.805 683.271 145.021Z" fill="#F7F8F9"/>
<path d="M692.967 91.5899C690.49 87.4663 690.279 79.8904 695.885 78.2602C703.2 76.3039 713.05 82.0961 712.071 90.3432C710.036 98.859 697.152 97.7657 692.967 91.5899Z" fill="#F7F8F9"/>
<path d="M747.898 162.952C746.881 155.971 744.961 148.088 748.724 141.548C752.084 135.506 762.433 137.444 763.642 144.195C764.084 153.669 760.244 163.336 763.22 172.657C765.197 179.312 776.717 177.893 776.871 170.912C777.543 161.897 773.185 153.152 774.567 144.137C776.218 137.386 787.661 137.348 789.197 144.214C790.695 153.727 789.908 163.413 790.062 173.002C789.946 178.104 790.311 184.913 784.513 187.099C776.065 190.11 766.177 190.149 757.729 187.253C751.277 180.962 749.895 171.372 747.898 162.952Z" fill="#F7F8F9"/>
<path d="M800.372 189.313C797.55 185.745 800.545 180.931 801.371 177.038C804.961 168.848 800.776 160.332 799.816 152.066C799.124 147.559 798.606 141.402 803.271 138.774C807.054 137.566 812.449 137.681 813.793 142.208C815.771 150.934 812.199 160.16 815.195 168.752C817.863 175.273 826.12 175.599 832.052 174.429C846.087 171.667 851.425 153.313 866.555 153.236C874.12 152.239 880.033 157.34 885.563 161.617C892.705 167.333 904.071 164.974 909.889 172.646C909.908 178.821 903.092 184.211 897.025 182.446C885.716 179.167 876.903 167.831 864.251 169.596C853.479 171.476 849.87 183.674 841.23 188.967C831.937 190.502 822.395 185.534 813.275 189.121C809.147 189.811 803.79 193.168 800.372 189.313Z" fill="#F7F8F9"/>
<path d="M811.757 49.1647C810.778 45.7316 811.508 41.0518 815.156 39.4599C819.495 37.5227 824.679 39.2297 828.269 42.0108C834.221 47.1892 836.794 55.1871 842.669 60.4231C848.468 64.796 856.416 65.122 862.023 69.8402C866.304 73.6186 862.407 81.7507 856.8 81.137C846.298 80.715 837.485 73.9446 829.268 68.0565C822.72 62.5904 815.156 57.2776 811.757 49.1647Z" fill="#F7F8F9"/>
<path d="M842.612 103.056C839.636 99.8342 842.094 94.4064 845.991 93.1214C855.534 89.4965 865.959 91.3952 875.905 91.0692C892.993 91.2226 908.487 80.2327 925.786 83.1097C935.655 83.7618 947.002 87.7895 956.026 82.1507C962.42 73.9227 956.122 59.9408 965.857 53.5348C976.762 47.4549 990.318 54.4363 1001.34 48.6249C1006.66 45.2109 1002.8 36.2157 996.922 36.1006C987.246 34.969 977.818 39.7064 968.161 38.2487C961.172 37.1939 958.964 25.0149 966.548 23.1161C975.975 20.4502 985.767 23.001 995.329 23.3463C1000.15 23.8449 1006.56 23.0586 1008.86 28.5248C1012.57 34.0293 1014.64 44.789 1023.59 42.2381C1030.45 38.3447 1029.58 28.5247 1035.28 23.4613C1042.64 17.1321 1053.77 15.4827 1062.76 18.9925C1067.35 20.6995 1068.88 26.8369 1065.75 30.5769C1057.92 33.7991 1048.95 31.4976 1041.12 34.643C1034.88 37.4624 1038.76 47.8002 1045.08 47.4549C1061.78 47.5125 1076.49 36.6569 1093.21 36.7911C1100.3 36.4267 1104.08 47.6275 1097.51 50.8689C1090.85 53.2663 1083.55 52.806 1076.78 54.8007C1065.74 57.8119 1054.27 60.7463 1042.75 58.9818C1034.92 58.1571 1027.76 53.8993 1019.79 53.9952C1009.67 55.2994 1001.7 63.7383 991.201 63.4506C985.479 64.026 978.126 62.3766 974.132 67.651C970.004 74.6899 973.767 83.5508 970.599 90.8965C968.833 94.368 964.916 95.8065 961.422 96.8038C940.359 101.464 918.452 94.9626 897.466 100.39C884.583 103.267 871.892 107.583 858.606 108.12C852.98 108.273 846.471 107.698 842.612 103.056Z" fill="#F7F8F9"/>
<path d="M849.889 51.2684C848.679 48.5833 847.93 44.0953 851.463 42.8486C859.757 39.1278 869.185 42.7144 877.844 40.6813C887.924 38.8593 898.234 32.7218 908.545 36.6536C914.093 38.3798 916.282 44.2295 917.549 49.3312C918.874 55.2577 919.911 61.4911 918.49 67.4943C917.703 74.4756 905.088 74.6099 904.762 67.36C902.938 61.6254 906.413 51.7671 898.868 49.619C884.468 48.1613 871.104 57.1373 856.647 55.7181C853.882 55.3536 851.213 53.7617 849.889 51.2684Z" fill="#F7F8F9"/>
<path d="M871.22 74.1912C869.166 64.1986 882.836 60.171 890.382 62.7985C896.564 64.0452 898.503 73.2514 892.494 76.1091C886.35 79.6382 875.022 81.7096 871.22 74.1912Z" fill="#F7F8F9"/>
<path d="M888.193 149.224C886.119 145.886 886.599 139.672 891.534 139.442C902.113 138.004 912.097 143.029 922.062 145.752C929.012 148.399 935.963 142.223 942.913 144.621C951.399 149.243 947.156 164.51 937.46 164.203C928.283 163.436 919.451 160.559 910.523 158.411C902.862 156.109 894.548 154.383 888.193 149.224Z" fill="#F7F8F9"/>
<path d="M930.894 70.2619C928.321 65.9273 931.239 60.6721 931.22 55.954C932.238 50.2768 927.63 43.7366 931.739 38.7691C936.769 34.051 944.468 33.7824 950.939 34.8565C955.278 35.3743 959.291 39.6897 957.198 44.1778C954.107 48.3205 948.846 50.3727 946.062 54.7073C945.505 59.4638 946.446 64.2779 945.716 69.0344C943.662 75.0184 934.273 75.0376 930.894 70.2619Z" fill="#F7F8F9"/>
<path d="M955.489 153.179C954.183 150.36 954.299 147.061 954.855 144.05C958.407 139.255 965.051 140.789 970.215 140.156C979.508 140.578 985.863 131.564 995.079 131.545C1004.83 131.295 1014.62 132.427 1024.21 134.249C1031.94 135.592 1037.7 141.614 1045.11 143.762C1053.39 144.913 1061.68 143.187 1069.98 143.052C1083.48 142.841 1096.78 145.776 1110.24 145.987C1117.98 146.102 1125.62 143.187 1133.36 144.51C1139.98 145.987 1140.77 155.059 1137.5 159.873C1134.05 164.112 1127.94 162.788 1123.28 161.944C1105.92 157.245 1087.8 159.182 1070.06 158.703C1057.27 158.281 1043.85 158.971 1032 153.294C1022.27 148.787 1011.65 144.031 1000.67 146.486C988.34 149.497 977.108 156.766 964.187 157.341C960.865 157.533 957.063 156.325 955.489 153.179Z" fill="#F7F8F9"/>
<path d="M985.556 89.8427C981.255 88.5769 981.639 82.4202 984.212 79.62C988.782 74.9018 995.713 73.8662 1001.91 72.7538C1023.19 69.8576 1044.67 71.8907 1066.02 72.2743C1070.84 72.4661 1075.7 71.718 1080.14 69.7426C1095.07 63.49 1109.97 57.1033 1125.01 51.0617C1148.6 61.9173 1174.79 53.7085 1199.5 57.18C1212.85 58.6376 1219.43 73.6743 1232.87 74.8059C1242.86 76.7239 1252.24 72.0441 1262.02 71.2002C1269.77 72.3318 1276.95 75.9375 1284.69 77.2993C1323.44 85.1437 1362.91 77.3951 1402 78.6418C1410.03 78.7569 1418.15 80.1762 1426.12 78.4692C1460.56 71.507 1495.85 75.0361 1530.7 74.6525C1538.34 74.4415 1546.14 74.8635 1553.66 73.1373C1559.33 68.9562 1562.67 60.0377 1571 60.9775C1577.18 61.1885 1578.64 69.2247 1575.15 73.2907C1570.98 78.5459 1567.18 84.6834 1561.25 88.0782C1550.11 91.6264 1538.32 88.4425 1526.94 88.4809C1512.48 87.8863 1499.31 96.2295 1484.85 95.2705C1476.83 93.6019 1470.24 87.0425 1461.66 87.6562C1416.12 88.5768 1370.78 94.2156 1325.22 93.9663C1309.96 93.4868 1294.5 93.506 1279.62 89.7852C1271.33 87.8864 1262.84 85.6616 1254.3 86.9658C1243.05 88.3083 1231.2 92.2976 1220.16 87.8288C1213.54 85.4506 1210.29 78.4692 1204.38 75.0553C1197.72 71.929 1190.27 71.2194 1183.05 70.4714C1163.87 69.0713 1144.57 71.0276 1125.41 69.0904C1117.92 68.1315 1111.72 73.3483 1104.63 74.6525C1099.24 75.9375 1093.38 75.8033 1088.35 78.2966C1083.67 80.7516 1085.09 88.1357 1089.83 89.5934C1096.69 91.7798 1103.83 88.8837 1110.49 87.1575C1122.13 83.0148 1134.64 84.4341 1146.76 84.2423C1159.58 84.4341 1172.45 84.4916 1185.27 85.4698C1203.65 85.3739 1213.56 105.532 1231.22 107.718C1239.84 106.912 1247.06 99.7777 1256.06 101.254C1312.11 107.891 1368.79 107.756 1425.02 103.959C1438.52 103.268 1451.73 98.9146 1465.31 99.816C1469.01 99.816 1470.72 104.496 1469.24 107.488C1466.98 112.494 1461.52 115.793 1456.01 115.332C1414.93 115.716 1374.01 120.089 1332.92 120.415C1308.52 120.875 1284.38 116.023 1260 115.754C1254.78 115.869 1248.92 115.754 1244.74 119.418C1240.09 122.678 1235.75 128.681 1229.28 126.763C1222.75 124.366 1218.55 118.363 1213.02 114.45C1205.66 109.214 1197.58 104.937 1189.02 102.098C1177.17 98.32 1164.65 100.717 1152.52 101.063C1142.27 101.715 1132.17 98.1091 1121.93 99.8736C1110.51 101.139 1098.76 105.704 1087.37 101.887C1078.93 99.5092 1077.74 87.9823 1069.1 85.9301C1059.71 83.9354 1050.43 87.5028 1041.16 88.4043C1032.73 89.3824 1024.7 85.604 1016.33 85.7575C1006 86.4671 996.02 92.2593 985.556 89.8427Z" fill="#F7F8F9"/>
<path d="M1003.74 171.798C1000.19 168.48 1001.03 163.225 1000.34 158.871C1012.28 156.109 1021.69 165.584 1032.58 168.326C1048.65 172.373 1065.35 169.343 1081.67 171.299C1092.48 172.584 1103.31 173.716 1114.2 174.138C1119 173.869 1123.35 177.839 1123.64 182.615C1122.66 186.854 1118.59 189.827 1114.39 190.133C1103 191.054 1092.71 184.61 1081.44 184.38C1061.65 183.689 1041.64 184.13 1022.15 180.064C1015.6 178.511 1008.65 176.65 1003.74 171.798Z" fill="#F7F8F9"/>
<path d="M1041.93 129.66C1039.05 127.282 1040.49 122.717 1040.43 119.437C1041.52 113.281 1041.43 106.012 1045.54 100.967C1051.43 98.9152 1058.09 99.529 1064.1 100.91C1071.59 104.132 1075.28 112.993 1083.4 115.199C1099.22 119.572 1115.41 113.377 1131.4 114.278C1138.71 114.834 1145.26 118.977 1152.63 119.207C1161.98 118.382 1169.51 109.215 1179.34 111.842C1187.46 114.566 1184.99 126.61 1178.07 129.257C1169.89 132.153 1161.16 133.016 1152.63 134.321C1143.82 136.143 1136.33 129.583 1127.71 129.507C1111.01 128.816 1094.29 133.342 1077.62 130.619C1070.92 129.679 1069.56 121.873 1065.95 117.328C1064.06 113.952 1059.57 113.914 1056.46 115.314C1055.79 119.898 1055.83 124.539 1054.93 129.065C1052.08 133.266 1045.48 132.499 1041.93 129.66Z" fill="#F7F8F9"/>
<path d="M1162.18 192.246C1150.45 192.054 1138.18 190.117 1128.65 182.772C1129.94 179.645 1129 174.524 1133.26 173.604C1142.57 171.858 1151.14 177.44 1160.2 178.514C1167.48 177.459 1173.97 173.201 1181.4 172.875C1188.4 172.779 1191.84 183.155 1185.98 187.145C1179.17 192.074 1170.24 192.189 1162.18 192.246Z" fill="#F7F8F9"/>
<path d="M1134.18 34.1703C1132.53 26.8053 1134.51 18.2129 1140.94 13.6865C1148.74 8.20114 1157.99 4.00083 1167.73 4.34606C1181.82 4.4036 1195.91 4.74885 1209.97 5.86126C1220.58 6.43665 1229.93 13.3412 1240.72 12.3631C1246.39 12.6316 1253.93 10.1 1257.95 15.4702C1259.17 21.6844 1255.89 30.3727 1248.42 30.1617C1238.98 29.6822 1231.1 23.4488 1221.85 21.9528C1205.97 19.1143 1189.79 18.0019 1173.66 17.7334C1166.44 18.0211 1158.8 17.7717 1152.08 20.8213C1147.49 23.0269 1145.89 30.1042 1150.91 32.8085C1156.44 33.7291 1162 32.0029 1167.53 31.5618C1190.29 28.8383 1215.36 29.0685 1234.77 42.9161C1244.97 51.0674 1258.89 42.9736 1264.07 32.8852C1269.29 23.9284 1271.16 10.7712 1282.5 7.29972C1297.13 3.84742 1312.36 4.26937 1327.3 4.38445C1334.17 4.15428 1340.6 6.68593 1346.94 9.0642C1353.49 11.6342 1360.7 9.96568 1367.42 11.6919C1374.14 13.3988 1374.62 25.4436 1367.52 26.9204C1355.37 28.3013 1344.96 19.613 1332.98 19.3253C1319.48 18.8841 1305.91 18.6156 1292.47 19.8048C1288.51 19.9582 1285.73 23.0653 1283.5 25.923C1277.32 33.9209 1273.21 43.2805 1267.05 51.2784C1260.35 60.4654 1247.56 61.2134 1237.17 60.6572C1225.84 60.1969 1220.66 47.6151 1210.04 45.2176C1189.82 40.4611 1169.13 47.4616 1148.77 44.5463C1142.69 43.7791 1135.64 40.7489 1134.18 34.1703Z" fill="#F7F8F9"/>
<path d="M1146.89 160.944C1144.42 156.993 1145.99 151.508 1150.21 149.532C1157.91 145.332 1167.03 144.661 1175.65 144.661C1182.13 144.603 1186.93 149.59 1192.8 151.489C1196.89 152.217 1200.38 149.034 1202.75 146.061C1202.42 137.123 1188.69 135.992 1188.44 126.805C1189.29 122.47 1193.65 117.713 1198.45 119.497C1206.37 123.525 1209.31 132.75 1215.82 138.351C1223.67 141.419 1232.47 140.882 1240.76 140.595C1248.85 140.71 1252.09 130.468 1260.12 130.314C1274.88 129.106 1289.36 133.498 1304.1 133.575C1351.62 133.786 1399.45 135.416 1446.59 128.166C1452.04 126.421 1458.95 130.276 1457.99 136.548C1458.13 142.589 1451.71 145.85 1446.37 145.313C1387.39 144.968 1328.39 149.398 1269.45 145.581C1258.56 143.606 1252.88 156.322 1242.59 156.782C1232.91 156.859 1223.79 151.719 1214.07 152.85C1206.7 154.289 1203.25 162.152 1196.6 165.029C1187.17 167.273 1179.4 156.59 1169.95 160.465C1162.66 161.769 1152.81 167.964 1146.89 160.944Z" fill="#F7F8F9"/>
<path d="M1205.11 177.957C1202.98 174.352 1204.03 168.962 1208.54 167.85C1220.12 165.203 1231.51 170.266 1242.91 171.59C1250.38 172.338 1256.33 166.987 1262.67 163.975C1269.45 160.255 1277.41 159.852 1284.98 160.35C1334.25 164.033 1383.63 160.178 1432.9 158.624C1440.83 158.893 1449.45 158.567 1456.51 162.748C1461.18 165.107 1461.14 173.719 1455.76 175.023C1449.37 176.001 1443.01 173.91 1436.62 173.93C1412.81 173.757 1389.29 178.418 1365.5 178.763C1350.74 179.089 1336.13 175.33 1321.36 176.768C1314.74 177.42 1308.92 181.314 1302.3 181.793C1294.2 180.642 1287.99 172.932 1279.33 174.217C1266.03 174.658 1256.06 186.013 1242.78 186.339C1234.06 186.722 1226.44 181.103 1217.74 181.525C1213.48 180.949 1207.87 182.023 1205.11 177.957Z" fill="#F7F8F9"/>
<path d="M1277.49 63.1303C1275.76 60.8863 1275.65 58.5848 1277.13 56.2065C1280.54 51.239 1285.46 47.5182 1288.82 42.474C1291.74 38.4463 1294.39 33.1144 1299.96 32.4623C1310.29 30.6402 1320.86 31.4074 1331.29 32.1171C1338.95 32.8651 1347.55 33.5363 1353.2 39.4628C1358.04 44.1426 1359.78 52.4665 1367.12 54.1351C1386.97 59.4862 1407.07 51.9487 1427.04 52.6967C1434.66 52.8501 1435.2 64.4346 1428.27 66.4101C1404.42 72.2982 1380 64.8757 1355.94 64.6647C1347.53 64.8949 1339.66 68.5582 1331.25 68.7691C1316.31 69.9391 1301.68 65.7963 1286.8 65.4319C1283.62 65.1826 1280.05 65.3743 1277.49 63.1303ZM1298.75 55.3447C1303.41 59.3916 1309.94 56.9366 1315.41 56.5147C1323.76 54.942 1332.21 57.5887 1340.58 56.4763C1344.6 56.342 1346.96 51.5663 1344.67 48.2483C1342.35 44.0672 1336.92 44.7576 1332.9 44.2206C1322.5 43.9521 1311.59 42.2643 1301.57 45.7741C1297.4 47.0208 1296.17 51.9883 1298.75 55.3447Z" fill="#F7F8F9"/>
<path d="M1439.62 53.1554C1436.35 48.303 1436.05 39.3845 1442.36 36.8528C1451.48 34.3211 1454.82 47.0947 1463.64 46.5385C1483.39 47.8043 1503.25 46.6344 1523.02 45.6179C1531.39 44.6589 1540.55 45.4069 1547.94 40.612C1553.74 37.083 1559.92 32.6525 1567.14 33.8033C1577.65 35.1459 1588.11 37.9652 1597.59 42.7601C1601.66 45.0041 1607.04 48.4948 1605.68 53.9418C1603.91 57.5092 1600.17 60.5395 1595.98 59.8874C1585.86 58.775 1579.66 47.8043 1569.18 47.9769C1558.5 46.6727 1552.69 58.4489 1542.55 59.1777C1515.69 62.2848 1488.56 61.5944 1461.58 60.5779C1453.94 60.1176 1444.65 59.8491 1439.62 53.1554Z" fill="#F7F8F9"/>
<path d="M1454.82 28.4473C1451.44 24.4771 1454.19 17.4382 1459.68 17.4382C1469.9 16.5368 1480.05 19.1452 1490.3 18.7232C1508.66 19.8165 1525.75 8.69238 1544.14 11.9721C1550.61 13.0269 1552.36 22.54 1547.25 26.2416C1542.47 29.6364 1536.27 29.0802 1530.74 29.1761C1508.85 28.1979 1487.27 35.3519 1465.38 32.6476C1461.62 32.1106 1457.65 31.1132 1454.82 28.4473Z" fill="#F7F8F9"/>
<path d="M1462.56 158.644C1460.85 154.827 1460.05 147.616 1465.58 146.714C1471.41 146.446 1477.33 148.114 1483.09 146.542C1505.05 140.96 1527.8 146.829 1550.02 144.087C1557.24 143.415 1562.32 137.47 1569.1 135.475C1577.97 136.434 1584.94 143.78 1594.1 144.087C1611.32 145.87 1629.04 146.695 1645.94 142.303C1650.8 141.056 1657.21 144.221 1656.81 149.84C1655.96 155.23 1650.62 157.742 1645.82 158.605C1629.2 162.134 1611.9 162.192 1595.1 159.929C1587.51 159.027 1580.47 155.863 1572.96 154.731C1556.72 154.194 1541.03 159.699 1524.88 160.523C1513.96 161.06 1503.07 158.548 1492.15 159.737C1485.04 160.543 1478.25 163.496 1471.03 163.324C1467.63 163.4 1464.08 161.77 1462.56 158.644Z" fill="#F7F8F9"/>
<path d="M1474.64 135.697C1469.42 136.771 1462.06 131.017 1466.25 125.724C1471.93 118.455 1480.3 113.909 1487.12 107.772C1494.01 109.555 1500.65 112.394 1507.76 113.506C1513.71 110.783 1516.86 103.993 1523.19 101.922C1532.66 99.6395 1540.92 106.084 1549.9 107.637C1556.08 106.621 1561.06 102.19 1567.14 100.752C1578.55 101.692 1585.34 118.685 1597.77 113.41C1599.92 108.002 1599.36 101.749 1602.3 96.6282C1605.51 93.9239 1609.96 95.1322 1613.51 96.3789C1613.45 102.516 1612.19 108.577 1612.22 114.715C1614.01 116.46 1616.45 117.285 1618.96 117.304C1629.2 117.937 1639.39 115.846 1649.65 116.479C1668.31 116.748 1680.94 135.045 1699.64 135.179C1707.61 134.872 1706.75 122.751 1702 118.704C1695.55 114.216 1686.95 116.767 1679.87 114.139C1674.53 111.454 1670.48 106.64 1664.85 104.454C1651.8 102.248 1637.8 106.832 1625.24 101.5C1617.12 98.5654 1620.27 84.526 1628.7 84.737C1636.01 85.1014 1642.5 89.0907 1649.72 90.0113C1656.23 90.1456 1662.61 88.055 1669.15 88.5729C1675.26 91.6032 1678.77 98.201 1685.07 100.905C1692.27 102.593 1699.95 99.9271 1707.03 102.344C1713.08 105.47 1713.12 113.18 1714.46 119.011C1715.18 124.189 1716.58 131.132 1723.01 131.65C1747.3 135.275 1771.51 126.759 1795.87 128.946C1801.61 129.54 1807.18 131.209 1812.94 131.727C1825.98 132.571 1838.42 126.759 1851.46 127.526C1860.63 128.946 1866.91 137.519 1876.3 138.536C1890.93 140.741 1905.79 138.056 1920.5 139.686L1920.5 153.745C1906.75 153.208 1892.97 153.419 1879.26 152.23C1867.74 151.386 1857.31 145.613 1845.81 144.692C1802.84 140.952 1759.76 148.777 1716.81 144.654C1705.73 143.311 1695.46 151.558 1684.44 148.24C1673.66 145.421 1665.85 136.982 1656.31 131.823C1648.4 127.507 1639.07 129.08 1630.48 129.31C1616.37 130.576 1602.14 129.521 1588.21 127.2C1579.64 126.146 1573.61 118.857 1565.32 117.227C1554.32 117.093 1554.05 135.448 1542.26 132.82C1534.87 130.864 1539.63 120.66 1536.29 115.367C1532.99 114.427 1528.72 113.391 1526.04 116.172C1523.08 120.641 1522.37 126.318 1518.82 130.403C1509.64 132.532 1501.5 125.398 1492.44 126.03C1485.91 128.121 1481.2 133.76 1474.64 135.697Z" fill="#F7F8F9"/>
<path d="M1534.87 180.201C1531.99 172.127 1541.68 168.809 1547.94 169.269C1579.51 169.461 1610.63 181.103 1642.31 176.289C1652.49 175.042 1659.09 166.776 1665.02 159.315C1668.33 154.04 1677.33 153.983 1680.23 159.641C1681.57 165.222 1680.06 171.762 1675.53 175.483C1669.4 179.587 1661.74 180.412 1655.56 184.382C1649.34 188.161 1643.89 194.106 1636.21 194.567C1614.05 197.348 1592.76 188.985 1571.23 185.399C1562.21 183.807 1553.05 185.322 1543.99 184.382C1540.57 184.114 1537.15 182.867 1534.87 180.201Z" fill="#F7F8F9"/>
<path d="M1578.66 93.9279C1575.9 88.2508 1580.2 82.3243 1583.9 78.2391C1589.7 71.5262 1599.23 71.7372 1606.83 68.4575C1614.09 65.3312 1618.12 57.6978 1625.32 54.5332C1633.48 51.6371 1641.83 54.9935 1649.2 58.4842C1655.44 62.0132 1660.45 55.1661 1665.87 52.9988C1676.39 48.7985 1687.3 57.3909 1697.93 53.6509C1737.39 43.1789 1778.48 42.9296 1818.95 40.513C1828.84 40.0527 1839.01 36.4469 1848.77 39.6499C1856.29 42.4501 1854.66 56.8539 1845.85 55.7031C1799.37 51.311 1753.38 61.6488 1707.13 64.027C1704.86 64.2764 1702.12 64.6024 1700.95 66.8464C1697.72 73.3675 1699.58 81.1927 1696.74 87.7905C1694.04 91.6647 1688.31 89.7084 1685.07 87.6562C1679.39 83.5134 1685.05 76.3211 1685.63 70.9317C1687.93 65.6573 1680.67 63.164 1676.7 64.4874C1669.71 67.4986 1665.52 75.7457 1657.42 76.2636C1647.88 76.1677 1640.08 68.1698 1630.39 69.4165C1624.92 70.759 1621.08 75.2854 1616.53 78.2966C1611.8 81.8832 1605.6 82.3435 1600.55 85.2396C1596.02 88.4042 1592.87 93.2183 1588.17 96.1336C1584.88 97.3803 1581.04 96.4212 1578.66 93.9279Z" fill="#F7F8F9"/>
<path d="M1694.17 186.417C1688.16 185.669 1687.18 177.902 1688.7 173.145C1690.77 164.975 1699.1 160.429 1707.09 160.007C1778.29 152.585 1849.44 164.303 1920.5 167.986L1920.5 181.603C1852.17 176.29 1783.53 170.978 1714.98 175.005C1706.23 175.121 1703.23 187.472 1694.17 186.417Z" fill="#F7F8F9"/>
<path d="M1713.33 94.2187C1707.92 93.4323 1707.11 86.3551 1708.78 82.1548C1710.91 76.6694 1717.67 76.1516 1722.7 76.0173C1749.79 76.4393 1776.25 68.614 1803.34 69.1702C1816.11 69.0552 1829.05 71.8362 1841.72 68.9209C1850.55 66.9646 1859.81 65.6796 1868.76 67.7893C1879.53 69.8223 1888.72 76.516 1899.42 78.7408C1906.91 80.4286 1914.26 77.1489 1920.5 73.2746L1920.5 91.476C1908.58 93.9118 1893.37 98.8601 1883.62 88.8484C1877.38 82.2698 1868.01 80.5628 1859.33 81.9438C1842.7 84.4946 1825.86 84.1303 1809.12 84.4563C1785.45 84.7824 1761.74 85.4153 1738.22 88.1388C1729.59 88.906 1721.97 93.9502 1713.33 94.2187Z" fill="#F7F8F9"/>
<path d="M1724.89 114.81C1721.84 110.514 1723.76 103.993 1729.06 102.727C1745.03 97.7017 1761.93 102.727 1778.25 100.809C1786.69 99.9073 1795.1 96.7043 1803.67 98.6223C1823.85 103.302 1844.7 98.8716 1864.57 94.6521C1868.66 93.8465 1874.04 93.5972 1876.3 97.9318C1877.13 102.075 1875.23 106.467 1871.33 108.231C1862.17 112.853 1851.57 111.722 1841.68 112.662C1832.08 113.237 1823.08 119.336 1813.31 116.67C1805.01 114.714 1796.58 112.758 1788 113.544C1771.97 114.637 1755.73 114.311 1739.94 117.687C1734.95 118.473 1728.27 119.585 1724.89 114.81Z" fill="#F7F8F9"/>
<path d="M1866.09 52.4469C1857.72 48.3233 1859.81 32.0015 1870.5 33.7468C1877.38 37.4868 1881.91 44.9093 1889.72 47.0382C1895.98 48.6109 1902.57 48.8027 1908.98 48.189C1911.57 47.8438 1915.43 47.0766 1915.64 43.7777C1916.33 36.5854 1915.28 28.7602 1920.5 22.8337L1920.5 57.3376C1912.63 62.1325 1903.14 64.9519 1894 62.5544C1884.42 60.0995 1874.96 56.7814 1866.09 52.4469Z" fill="#F7F8F9"/>
<path d="M1878.11 126.749C1870.45 128.648 1869.02 116.776 1875.21 114.052C1889.11 106.917 1905.45 110.043 1920.5 109.641L1920.5 125.176C1906.33 124.677 1892.14 124.754 1878.11 126.749Z" fill="#F7F8F9"/>
<path d="M1881.2 28.3915C1878.76 25.4187 1879.91 20.3553 1883.6 18.8785C1890.49 15.6755 1899.61 16.0016 1905.77 20.7197C1910.36 24.4022 1908.21 32.5151 1902.64 33.9536C1895.33 36.0825 1886.48 33.9727 1881.2 28.3915Z" fill="#F7F8F9"/>
</svg>
