<svg width="338" height="276" viewBox="0 0 338 276" fill="none" xmlns="http://www.w3.org/2000/svg">
<path fill-rule="evenodd" clip-rule="evenodd" d="M218.203 116.68C218.642 118.434 218.213 120.292 217.057 121.67C182.199 163.079 146.563 214.698 119.909 271.517C118.304 275.026 114.438 276.801 110.84 275.652C107.244 274.504 105.012 270.787 105.606 266.965C109.443 242.555 115.507 218.54 124.348 195.028C125.331 192.459 125.009 189.557 123.487 187.281C121.967 185.005 119.448 183.668 116.776 183.731C89.2092 184.211 23.3318 185.422 10.5853 185.568C-5.6218 185.715 -0.148048 180.327 6.81748 171.682C22.212 152.596 50.3126 142.469 50.3126 142.469C50.3126 142.469 129.749 113.756 147.106 107.095C188.952 92.0808 188.954 90.2224 229.486 48.7095C287.106 -10.2814 318.443 -0.258225 324.982 2.16406C347.797 10.5794 339.991 51.5703 306.525 93.0623C295.291 106.99 296.144 119.499 299.006 131.527C301.244 143.617 314.443 215.575 314.443 215.575C314.443 215.575 318.95 234.724 303.554 253.831C296.588 262.455 292.946 268.364 282.868 260.931C272.787 253.497 210.449 206.053 210.449 206.053C195.463 194.589 206.627 166.357 227.802 135.118C228.795 133.656 230.658 133.134 232.225 133.886C235.293 135.327 238.703 136.12 242.289 136.12C255.986 136.12 267.105 124.635 267.105 110.478C267.105 96.3406 255.986 84.8556 242.289 84.8556C228.593 84.8556 217.473 96.3406 217.473 110.478C217.473 112.628 217.726 114.696 218.203 116.68Z" fill="white"/>
</svg>
