<svg width="1920" height="197" viewBox="0 0 1920 197" fill="none" xmlns="http://www.w3.org/2000/svg">
<path d="M115.104 148.337C127.392 148.28 139.968 146.995 152.045 149.545C160.416 155.012 159.264 168.399 168.557 173.232C176.102 176.071 184.301 177.202 191.29 181.499C195.706 184.126 203.117 186.984 205.459 180.329C205.305 171.64 195.436 167.344 192.825 159.442C193.651 153.765 199.353 149.872 204.883 149.967C212.198 156.201 210.816 167.632 217.459 174.326C221.414 176.435 226.061 176.358 230.419 176.646C250.329 177.164 270.202 173.386 290.093 175.285C295.872 175.726 301.459 177.509 307.258 177.778C313.709 176.991 319.584 173.347 326.17 173.194C334.291 175.476 332.774 189.247 324.807 190.973C310.119 195.02 295.084 189.574 280.281 189.19C261.465 188.595 242.592 187.963 223.776 188.979C215.904 189.248 209.319 193.889 202.042 196.267C195.418 198.3 188.659 195.634 182.285 193.965C175.22 191.645 167.731 190.167 161.28 186.332C153.389 179.926 151.68 167.479 141.446 163.624C128.621 159.327 115.45 165.023 102.912 167.708C92.3905 170.374 81.5808 168.611 70.9248 168.169C59.8848 167.537 49.4782 172.312 38.4766 172.312C29.2826 172.504 30.3662 172.085 26.9922 171.917C23.1561 171.727 20 168.739 20 164.898C20.0002 161.17 22.9842 158.043 26.709 158.185C31.4383 158.366 30.0243 159.016 40.2812 158.694C48.9788 158.56 57.12 155.204 65.4912 153.286C74.5536 151.157 83.0975 157.39 92.1406 156.296C99.9933 154.167 106.598 148.127 115.104 148.337ZM21.4658 191.592C16.897 179.299 42.9318 177.285 40.4551 190.155C38.6308 198.191 25.5362 197.864 21.4658 191.592ZM1664.52 159.315C1667.83 154.041 1676.83 153.983 1679.73 159.641C1681.07 165.222 1679.56 171.762 1675.03 175.483C1668.9 179.587 1661.24 180.412 1655.06 184.382C1648.84 188.161 1643.39 194.107 1635.71 194.567C1613.55 197.348 1592.26 188.985 1570.73 185.399C1561.71 183.807 1552.55 185.322 1543.49 184.382C1540.07 184.114 1536.65 182.867 1534.37 180.202C1531.49 172.127 1541.18 168.809 1547.44 169.269C1579.01 169.461 1610.13 181.103 1641.81 176.289C1651.99 175.042 1658.59 166.776 1664.52 159.315ZM1180.9 172.875C1187.9 172.78 1191.34 183.156 1185.48 187.145C1178.67 192.074 1169.74 192.189 1161.68 192.247C1149.95 192.055 1137.68 190.118 1128.15 182.772C1129.44 179.646 1128.5 174.525 1132.76 173.604C1142.07 171.859 1150.64 177.44 1159.7 178.514C1166.98 177.459 1173.47 173.202 1180.9 172.875ZM802.771 138.775C806.554 137.567 811.949 137.681 813.293 142.208C815.271 150.934 811.699 160.16 814.694 168.752C817.363 175.273 825.62 175.599 831.553 174.429C845.588 171.667 850.925 153.313 866.055 153.236C873.619 152.239 879.533 157.341 885.062 161.618C892.205 167.333 903.571 164.974 909.389 172.646C909.408 178.821 902.592 184.211 896.525 182.447C885.217 179.167 876.404 167.832 863.751 169.596C852.98 171.476 849.369 183.674 840.729 188.967C831.437 190.501 821.894 185.534 812.774 189.121C808.646 189.811 803.29 193.168 799.872 189.313C797.05 185.746 800.045 180.931 800.871 177.038C804.461 168.848 800.275 160.332 799.315 152.066C798.624 147.559 798.106 141.403 802.771 138.775ZM999.84 158.871C1011.78 156.109 1021.19 165.584 1032.08 168.327C1048.15 172.373 1064.85 169.343 1081.17 171.299C1091.98 172.584 1102.81 173.716 1113.7 174.138C1118.5 173.87 1122.85 177.839 1123.14 182.615C1122.16 186.853 1118.09 189.826 1113.89 190.133C1102.5 191.054 1092.21 184.61 1080.94 184.379C1061.15 183.689 1041.14 184.13 1021.65 180.064C1015.1 178.51 1008.15 176.651 1003.24 171.798C999.686 168.48 1000.53 163.224 999.84 158.871ZM748.224 141.548C751.584 135.507 761.933 137.444 763.143 144.195C763.584 153.669 759.744 163.336 762.72 172.657C764.697 179.312 776.217 177.893 776.371 170.912C777.043 161.897 772.685 153.152 774.067 144.137C775.719 137.386 787.161 137.348 788.697 144.214C790.195 153.727 789.408 163.413 789.562 173.002C789.446 178.104 789.811 184.913 784.013 187.099C775.565 190.11 765.677 190.149 757.229 187.252C750.778 180.962 749.395 171.372 747.398 162.953C746.381 155.971 744.461 148.088 748.224 141.548ZM416.717 134.499C447.11 125.503 478.176 136.531 508.762 138.2C515.846 138.641 522.797 135.63 529.862 136.723C537.888 139.274 539.519 148.326 541.996 155.231C543.206 159.22 546.01 164.093 550.925 163.306C560.371 161.503 563.923 148.557 574.138 148.921C582.662 151.261 588.173 159.701 597.005 161.235C603.475 161.522 609.773 159.489 616.243 159.413C629.702 158.665 643.065 162.251 656.447 161.503C661.382 157.207 662.515 149.65 668.256 146.217C671.577 146.083 676.511 147.464 676.089 151.703C675.858 157.514 673.958 163.133 673.9 168.963C675.436 171.821 678.873 171.457 681.58 170.901C689.586 168.465 695.999 161.733 704.62 161.215C710.534 160.314 716.409 166.892 714.124 172.608C709.324 176.846 702.45 176.252 696.575 177.556C689.606 178.343 685.862 185.516 679.449 187.492C670.252 188.585 669.58 173.759 660.633 174.468C646.502 174.852 632.39 174.795 618.278 174.872C609.946 174.795 601.728 176.808 593.434 176.424C586.81 174.18 582.451 167.986 575.885 165.646C568.32 165.416 565.766 175.293 558.777 176.674C552.96 177.096 547.315 174.507 541.536 175.178C535.123 177.499 529.612 182.965 522.316 182.255C501.638 181.546 481.536 175.255 460.8 175.063C426.278 175.063 391.526 180.337 357.158 175.063C347.693 173.26 337.267 170.594 331.008 162.711C327.513 156.977 333.657 150.129 339.725 150.589C348.211 150.321 350.592 161.868 359.04 162.021C366.778 161.733 374.035 157.072 381.907 158.683C391.546 160.275 400.973 163.747 410.88 163.287C430.08 162.347 449.241 159.892 468.499 160.256C487.968 160.813 506.553 168.139 525.983 168.561C531.244 168.599 534.547 162.136 531.782 157.725C529.958 153.084 524.793 151.549 520.224 151.952C493.152 152.354 466.617 145.565 439.603 145.124C424.761 145.277 410.573 152.776 395.616 150.378C388.378 150.014 387.341 138.814 393.695 136.397C401.241 134.613 409.267 137.337 416.717 134.499ZM1706.59 160.007C1775.62 152.81 1807.01 163.61 1873.64 167.629C1877.2 167.844 1880 170.785 1880 174.354C1880 178.263 1876.66 181.344 1872.76 181.029C1809.55 175.919 1780.56 171.123 1714.48 175.005C1705.73 175.12 1702.73 187.472 1693.67 186.417C1687.66 185.669 1686.68 177.902 1688.2 173.145C1690.27 164.975 1698.6 160.429 1706.59 160.007ZM1432.4 158.625C1440.33 158.893 1448.95 158.566 1456.01 162.748C1460.68 165.107 1460.64 173.719 1455.26 175.023C1448.87 176.001 1442.51 173.91 1436.12 173.929C1412.31 173.757 1388.79 178.418 1365 178.763C1350.24 179.089 1335.63 175.33 1320.86 176.768C1314.24 177.42 1308.42 181.314 1301.8 181.793C1293.7 180.643 1287.49 172.932 1278.83 174.217C1265.53 174.658 1255.56 186.012 1242.28 186.338C1233.56 186.722 1225.94 181.103 1217.24 181.525C1212.98 180.95 1207.37 182.024 1204.61 177.958C1202.48 174.352 1203.53 168.963 1208.04 167.85C1219.62 165.204 1231.01 170.266 1242.41 171.589C1249.88 172.337 1255.83 166.986 1262.17 163.975C1268.95 160.254 1276.91 159.851 1284.48 160.35C1333.75 164.033 1383.13 160.178 1432.4 158.625ZM1187.94 126.804C1188.79 122.47 1193.15 117.714 1197.95 119.498C1205.87 123.525 1208.81 132.751 1215.32 138.351C1223.17 141.42 1231.97 140.882 1240.26 140.594C1248.34 140.709 1251.59 130.468 1259.62 130.314C1274.38 129.106 1288.86 133.498 1303.6 133.575C1351.12 133.786 1398.95 135.416 1446.09 128.167C1451.54 126.421 1458.45 130.276 1457.49 136.547C1457.62 142.589 1451.21 145.85 1445.88 145.313C1386.89 144.968 1327.89 149.398 1268.95 145.582C1258.06 143.606 1252.38 156.321 1242.09 156.782C1232.41 156.858 1223.29 151.719 1213.57 152.85C1206.2 154.289 1202.74 162.153 1196.1 165.03C1186.67 167.273 1178.9 156.59 1169.45 160.464C1162.16 161.769 1152.31 167.963 1146.39 160.944C1143.92 156.993 1145.49 151.508 1149.71 149.533C1157.41 145.332 1166.53 144.661 1175.15 144.661C1181.62 144.603 1186.43 149.59 1192.3 151.489C1196.39 152.217 1199.88 149.034 1202.25 146.061C1201.92 137.123 1188.19 135.991 1187.94 126.804ZM891.034 139.442C901.613 138.004 911.597 143.029 921.562 145.752C928.512 148.399 935.463 142.223 942.413 144.621C950.899 149.243 946.656 164.51 936.96 164.203C927.782 163.435 918.95 160.559 910.022 158.411C902.362 156.109 894.048 154.383 887.693 149.224C885.62 145.887 886.1 139.672 891.034 139.442ZM91.2383 116.545C99.0911 109.583 108.883 116.431 117.178 118.56C135.955 121.322 155.789 117.256 173.952 123.988C180.288 126.194 181.652 133.462 183.303 139.12C184.8 146.83 187.181 155.327 183.725 162.865C180.038 166.048 175.084 162.73 172.339 159.833C168 153.658 170.362 145.258 166.829 138.737C164.832 135.764 160.992 135.034 157.651 134.651C144.807 133.404 131.885 135.86 119.021 134.632C112.8 134.038 108.23 127.075 101.702 128.839C96.8061 132.579 96.4995 139.868 91.7188 143.743C87.6868 145.833 82.0997 145.621 79.0469 141.939C78.0871 132.196 84.8256 123.258 91.2383 116.545ZM225.389 145.239C239.827 142.055 254.439 147.233 268.992 145.929C284.16 145.143 300.461 141.499 314.822 148.116C321.024 150.705 322.426 162.405 314.899 163.978C304.224 165.09 294.701 157.936 284.045 158.205C267.399 158.588 251.021 163.498 234.298 162.251C228.807 161.772 222.356 160.372 219.418 155.155C216.961 150.609 220.877 146.006 225.389 145.239ZM1568.6 135.475C1577.47 136.434 1584.44 143.779 1593.6 144.086C1610.82 145.87 1628.54 146.695 1645.44 142.303C1650.3 141.057 1656.71 144.221 1656.31 149.84C1655.46 155.23 1650.13 157.743 1645.33 158.606C1628.7 162.135 1611.4 162.192 1594.6 159.929C1587.01 159.028 1579.97 155.863 1572.46 154.731C1556.22 154.194 1540.53 159.699 1524.38 160.524C1513.46 161.061 1502.57 158.548 1491.65 159.737C1484.54 160.542 1477.75 163.496 1470.53 163.324C1467.13 163.4 1463.58 161.77 1462.06 158.644C1460.35 154.827 1459.55 147.616 1465.08 146.714C1470.91 146.446 1476.83 148.114 1482.58 146.542C1504.55 140.96 1527.3 146.829 1549.52 144.086C1556.74 143.415 1561.82 137.47 1568.6 135.475ZM994.579 131.544C1004.33 131.295 1014.13 132.427 1023.71 134.25C1031.44 135.592 1037.2 141.614 1044.61 143.762C1052.89 144.913 1061.18 143.187 1069.48 143.052C1082.98 142.841 1096.28 145.776 1109.74 145.987C1117.48 146.102 1125.12 143.187 1132.86 144.51C1139.48 145.987 1140.27 155.058 1137 159.873C1133.55 164.111 1127.44 162.789 1122.78 161.945C1105.42 157.246 1087.3 159.182 1069.56 158.703C1056.77 158.281 1043.35 158.971 1031.5 153.294C1021.77 148.787 1011.15 144.031 1000.17 146.486C987.84 149.497 976.608 156.766 963.687 157.341C960.365 157.533 956.564 156.325 954.989 153.179C953.684 150.36 953.799 147.061 954.355 144.05C957.907 139.256 964.55 140.79 969.715 140.157C979.008 140.579 985.363 131.564 994.579 131.544ZM768.48 3.8042C770.976 -0.894785 777.043 -0.358291 781.421 0.79248C790.31 4.89686 782.112 21.1607 793.171 22.4077C803.078 22.657 802.502 7.06403 812.371 6.73779C819.129 6.89123 824.237 12.1274 830.055 14.9468C836.218 18.7443 843.725 17.3637 850.561 17.0952C861.984 16.539 873.715 14.7364 884.985 17.6323C889.728 18.3611 891.303 26.4166 886.157 27.7593C877.767 30.6553 868.743 29.0245 860.064 29.1587C853.325 28.871 847.526 32.9375 841.056 34.0308C831.821 33.4168 825.772 23.0413 816.096 24.3071C809.607 26.0143 806.784 33.5516 800.583 35.7573C792.538 36.2752 784.666 31.3265 776.621 33.9731C768.211 36.5624 759.11 40.1111 754.003 47.687C750.144 52.6738 755.885 61.7064 762.01 58.0815C771.974 53.7278 780.672 43.4669 792.729 47.2642C806.515 50.6781 803.079 68.7073 812.007 76.897C817.824 81.1355 825.812 80.2726 831.764 84.2427C835.239 87.4841 835.987 93.7559 832.358 97.189C829.114 100.373 824.103 100.641 819.917 99.6626C813.274 97.6679 810.662 87.1197 802.963 88.8267C797.645 92.701 794.573 100.2 787.431 101.044C776.525 103.193 766.713 96.7099 756.211 95.3481C745.747 96.0196 736.454 103.211 725.702 102.118C719.174 101.964 715.604 91.3587 721.498 87.9448C729.946 84.2817 740.333 87.3884 748.205 82.0757C752.237 77.6261 751.239 70.6638 748.839 65.6196C743.405 55.071 732.749 48.0897 721.767 44.2729C716.275 42.6235 709.69 41.2036 704.544 44.5601C700.627 47.0726 699.014 54.3418 704.198 56.394C712.934 59.808 723.053 57.6408 731.597 61.8218C735.245 63.5287 735.955 67.8632 735.36 71.4497C732.5 76.0528 726.374 75.3438 721.785 74.5767C710.784 72.3327 700.032 68.3618 690.701 62.0327C682.752 56.8159 672.422 54.0157 663.148 56.8159C653.914 61.3999 651.514 72.9268 643.335 78.8149C638.861 82.1522 631.911 86.0646 626.899 81.73C622.906 76.6475 624.365 68.8799 628.339 64.2192C633.888 59.8847 641.606 59.9804 647.424 56.0103C654.451 51.2729 647.77 36.8886 639.514 40.9546C633.139 43.4671 628.569 49.3548 621.888 51.1577C609.83 52.0399 597.619 48.051 585.657 50.9087C580.857 52.0213 577.287 56.8161 578.093 61.7642C579.014 67.6714 582.432 72.9267 583.065 78.9106C582.528 84.0124 576.518 85.547 572.256 84.5688C567.648 80.2151 565.728 72.7929 559.085 70.894C551.693 68.4966 543.437 66.7509 535.853 69.2251C531.091 70.4336 530.227 77.4918 534.336 79.9468C540.921 82.5935 548.467 81.4045 554.918 84.4155C559.852 88.309 560.851 95.1946 565.018 99.7593C570.528 103.02 575.712 97.0549 580.608 94.9644C587.424 89.9012 595.814 94.1388 603.206 95.1362C620.774 98.4926 640.954 98.8578 655.776 87.3501C662.074 83.1306 663.993 75.3625 668.582 69.7046C672.672 64.3728 681.561 69.321 682.061 75.0747C681.254 81.0204 677.914 86.3909 677.779 92.4517C678.643 98.052 682.829 102.866 688.032 104.957C693.331 106.874 699.053 106.779 704.563 107.565C714.586 108.601 723.302 114.911 733.459 115.237C741.312 115.563 748.55 111.766 756.326 111.42C764.237 111.651 771.629 115.275 779.559 115.352C797.415 115.16 815.213 109.1 833.05 112.648C841.997 114.144 847.2 123.752 856.531 124.059C870.912 124.98 882.432 113.702 896.659 113.357C923.386 111.132 952.609 119.917 977.127 105.398C983.943 100.603 992.544 101.907 1000.4 101.274C1009.19 101.101 1017.98 99.8168 1026.78 100.45C1032.73 105.782 1031.52 117.174 1025.09 121.585C1017.08 123.388 1010.42 116.1 1002.47 115.908C981.696 113.875 964.858 129.947 944.525 130.849C926.401 132.23 908.756 124.328 890.631 127.224C883.047 128.432 879.571 136.257 873.619 140.151C866.707 141.417 859.776 135.797 853.113 138.655C845.952 144.447 842.476 153.807 834.662 158.909C827.309 164.029 818.132 150.911 824.909 145.425C829.383 141.283 835.738 139.96 840.25 135.875C843.13 131.406 838.33 125.67 833.434 126.303C813.504 126.572 793.632 130.254 773.664 128.912C765.37 128.394 757.075 124.443 748.819 127.224C742.983 128.509 737.204 131.539 731.117 130.177C714.855 127.07 700.128 117.98 683.539 116.484C673.037 117.481 678.221 132.575 669.965 136.334C662.362 138.463 657.505 129.333 658.445 122.889C658.83 115.141 668.641 113.76 671.578 107.469C673.46 102.329 670.637 94.7727 664.301 95.0796C654.931 96.4414 654.47 110.058 645.178 111.497C634.983 112.705 624.672 112.782 614.4 112.724C605.645 112.858 597.946 107.872 589.363 107.143C581.799 107.431 574.138 110.461 568.646 115.697C561.869 123.215 567.897 135.088 561.389 142.664C555.513 148.897 544.263 142.606 545.127 134.493C546.01 125.766 556.454 120.78 555.859 111.536C554.131 101.275 544.608 92.0101 533.817 92.5854C522.854 93.1034 512.429 98.1474 501.351 97.0542C490.675 96.0185 480 94.6953 469.421 92.9116C466.138 92.5472 462.202 90.5717 462.509 86.6782C461.568 80.3108 468.653 76.6286 474.125 78.1821C489.639 80.8289 505.786 87.5603 521.434 81.8257C527.021 79.9652 525.581 72.0252 520.608 70.4331C512.468 67.8055 503.808 71.4112 495.514 69.6851C483.187 67.9205 470.419 62.5506 458.035 66.5591C449.069 70.6251 456.672 83.2257 449.664 88.7495C444.826 92.7963 437.741 94.1967 434.438 99.9312C434.362 103.076 436.608 105.877 439.507 106.875C447.455 107.258 454.483 99.97 462.547 102.808C484.185 108.773 508.012 114.028 529.843 106.165C534.278 104.419 540.576 106.261 541.421 111.478C542.534 116.676 539.366 123.292 533.587 123.714C498.854 126.725 464.698 116.426 430.022 117.29C418.982 117.155 409.478 125.997 398.304 123.868C389.05 120.262 384.902 108.544 374.361 107.163C363.974 104.574 355.795 114.22 345.581 113.587C336.615 113.607 327.61 114.048 318.682 113.223C312.173 112.763 310.407 102.291 316.819 100.239C329.242 96.4988 342.47 101.197 355.065 98.2817C358.637 97.5146 362.227 94.3506 360.902 90.3423C360.576 85.6433 355.833 82.9962 351.494 83.188C342.413 83.4182 333.466 85.3746 324.365 85.2212C315.879 84.8951 311.5 94.9262 303.206 95.3481C294.144 91.7614 297.562 75.881 306.797 74.6343C320.16 71.7765 333.869 71.0668 347.463 70.2612C353.357 70.2804 359.923 69.379 365.184 72.6392C372.748 78.6424 368.967 91.7801 378.087 96.5366C383.789 99.8353 394.31 98.6653 394.637 90.5142C394.406 84.0126 386.457 83.4568 382.233 80.3306C377.913 78.7195 378.451 73.2145 380.486 69.9731C388.205 66.8469 395.443 73.0038 403.008 73.8286C408.902 73.234 414.625 70.7403 420.653 71.354C424.186 73.7324 424.723 79.0069 421.574 81.9604C415.699 87.9251 406.867 89.786 400.935 95.7124C397.997 99.2223 396.711 105.225 400.205 108.812C404.602 111.612 410.381 110.288 414.72 108.025C422.208 103.499 424.935 94.6957 429.812 87.9253C433.575 82.3249 439.469 78.3355 442.483 72.2173C444.883 68.5348 440.428 65.2359 437.299 64.0659C412.205 54.4956 385.056 63.1261 359.271 58.3696C324.845 53.6707 290.535 66.7128 256.147 60.6714C253.44 60.0768 250.676 59.079 248.794 56.9692C245.472 53.3828 248.602 46.6514 253.401 46.3442C260.544 45.8648 267.494 48.2807 274.637 48.2231C320.659 48.952 366.701 41.3764 412.666 46.1138C424.608 47.1112 435.533 52.7115 447.36 54.2075C455.194 55.128 462.701 51.8105 470.496 51.8872C489.197 51.9831 507.149 59.3862 525.927 58.4272C535.335 57.9861 544.838 53.9202 554.131 57.1997C558.643 57.9669 564 61.0358 568.147 57.8521C571.834 54.2655 568.57 49.355 567.648 45.3081C566.439 41.664 564.384 35.2195 570.221 34.855C586.157 34.6056 602.209 39.4969 618.145 36.1597C627.245 33.7428 633.14 23.6164 643.143 24.0767C654.202 25.2084 653.894 40.7823 664.128 43.314C671.712 45.0593 679.622 45.5192 687.398 44.9438C693.523 44.5219 696.442 38.2499 700.493 34.4907C705.466 28.2577 714.548 28.7176 720.25 23.52C728.064 16.7113 734.323 7.86944 743.712 3.01709C747.475 0.849824 752.986 0.984167 755.463 4.99268C758.477 10.3246 756.845 16.942 759.226 22.4849C762.566 27.2221 772.531 28.0847 774.394 21.6021C773.414 15.369 769.997 9.88381 768.48 3.8042ZM687.494 133.322C698.169 132.094 708.211 136.831 718.311 139.536C723.456 141.204 728.909 141.78 733.997 143.66C738.24 147.975 737.395 157.181 730.714 158.466C720.807 160.595 714.413 148.781 704.525 150.162C697.402 149.778 686.112 153.805 682.771 145.021C681.044 140.706 682.023 134.128 687.494 133.322ZM1628.2 84.7368C1635.51 85.1012 1642 89.0906 1649.22 90.0112C1655.73 90.1454 1662.11 88.0549 1668.65 88.5728C1674.76 91.6032 1678.27 98.2014 1684.57 100.906C1691.77 102.594 1699.45 99.9277 1706.53 102.344C1712.58 105.471 1712.62 113.181 1713.96 119.011C1714.68 124.19 1716.08 131.132 1722.51 131.65C1746.8 135.275 1771.01 126.759 1795.37 128.946C1801.11 129.54 1806.68 131.209 1812.44 131.727C1825.48 132.571 1837.92 126.76 1850.96 127.527C1860.13 128.946 1866.41 137.519 1875.8 138.536C1888.28 140.417 1900.93 138.739 1913.51 139.218C1917.21 139.359 1920 142.488 1920 146.191C1920 150.314 1916.57 153.613 1912.45 153.512C1901.21 153.238 1889.96 153.201 1878.76 152.23C1867.24 151.386 1856.81 145.613 1845.31 144.692C1802.34 140.952 1759.26 148.777 1716.31 144.654C1705.23 143.311 1694.96 151.558 1683.94 148.241C1673.17 145.421 1665.35 136.982 1655.81 131.823C1647.9 127.507 1638.57 129.08 1629.98 129.31C1615.87 130.576 1601.65 129.521 1587.71 127.201C1579.14 126.146 1573.11 118.857 1564.82 117.227C1553.82 117.093 1553.55 135.447 1541.76 132.82C1534.37 130.863 1539.13 120.66 1535.79 115.367C1532.49 114.427 1528.22 113.391 1525.54 116.172C1522.58 120.641 1521.87 126.319 1518.32 130.404C1509.14 132.532 1501 125.398 1491.94 126.031C1485.41 128.121 1480.7 133.76 1474.14 135.697C1468.92 136.771 1461.56 131.018 1465.75 125.724C1471.43 118.455 1479.8 113.909 1486.62 107.772C1493.51 109.556 1500.15 112.394 1507.26 113.506C1513.21 110.783 1516.36 103.994 1522.69 101.922C1532.16 99.64 1540.42 106.084 1549.4 107.637C1555.58 106.621 1560.56 102.191 1566.64 100.752C1578.05 101.692 1584.85 118.685 1597.27 113.411C1599.42 108.002 1598.86 101.749 1601.8 96.6284C1605.01 93.9242 1609.46 95.1327 1613.01 96.3794C1612.95 102.517 1611.69 108.577 1611.72 114.714C1613.51 116.46 1615.95 117.285 1618.46 117.304C1628.7 117.937 1638.89 115.846 1649.15 116.479C1667.81 116.748 1680.44 135.045 1699.14 135.179C1707.11 134.872 1706.25 122.75 1701.5 118.704C1695.05 114.216 1686.45 116.767 1679.37 114.139C1674.03 111.454 1669.98 106.64 1664.35 104.454C1651.3 102.248 1637.3 106.831 1624.74 101.5C1616.62 98.5648 1619.77 84.5263 1628.2 84.7368ZM622.311 127.038C632.179 123.144 644.812 125.561 652.146 133.386C655.583 137.184 656.659 145.565 650.957 147.733C643.699 148.251 636.96 142.592 629.702 145.296C625.709 145.757 620.601 148.749 617.241 145.258C613.19 139.255 615.149 129.665 622.311 127.038ZM576.902 133.654C574.752 122.99 589.075 119.058 597.023 121.935C607.065 124.122 610.598 137.989 604.358 145.43C594.106 148.039 583.776 140.693 576.902 133.654ZM354.087 125.692C361.114 121.185 370.905 120.648 378.259 124.675C385.19 128.607 384.672 140.076 377.511 143.471C369.024 147.71 356.986 146.597 350.554 139.213C347.674 134.725 349.613 128.377 354.087 125.692ZM103.795 67.8608C108.345 63.1043 116.218 64.8684 121.44 67.5728C124.301 75.8199 113.126 81.8811 115.238 90.0708C128.467 97.1288 143.616 89.3612 157.612 90.646C166.982 92.0844 175.046 98.011 184.569 98.855C190.329 99.181 195.897 97.3392 201.427 96.0542C213.388 92.8896 225.85 93.4841 238.1 93.6567C245.952 94.0019 253.94 93.7914 261.639 95.5942C265.594 96.3807 269.971 100.561 267.84 104.781C266.227 109 261.044 108.31 257.453 108.214C240.922 106.776 224.064 105.26 207.667 108.674C200.409 110.151 193.708 113.988 186.259 114.505C178.733 114.064 172.012 110.228 165.043 107.735C148.512 100.869 130.234 110.113 113.606 103.477C103.93 99.411 92.4859 98.4324 83.4043 104.57C72.6142 110.842 71.8078 124.306 67.3535 134.663C64.5695 142.622 55.1231 144.042 47.8271 144.751C34.3109 145.646 20.7945 143.864 7.2666 143.77C3.31 143.742 1.72954e-07 140.595 0 136.638C0.0001498 132.859 3.02879 129.77 6.80664 129.674C16.724 129.423 26.6562 129.191 36.499 130.673C42.4318 131.287 49.9395 132.572 54.3555 127.49C60.2689 120.01 60.2308 109.672 65.3379 101.79C69.1011 97.8578 74.17 95.4412 77.7988 91.356C82.2147 87.8269 77.2223 81.3817 72.96 80.231C66.1824 80.7296 59.9617 85.4098 52.9922 83.7222C38.0028 80.3857 30.283 84.5759 17.4365 85.2417C13.2611 85.4579 10 81.9413 10 77.7603C10.0003 73.3033 13.6872 69.7855 18.1309 69.4409C26.4454 68.7962 31.3022 66.9439 42.3555 67.0933C54.4514 67.0549 66.5857 66.595 78.6816 67.1704C81.5616 67.5732 85.4208 67.343 87.1104 70.2583C88.6654 75.9736 87.8207 82.0151 88.915 87.8071C92.083 91.3937 98.1316 91.3173 101.626 88.2485C103.68 81.6509 102.125 74.5352 103.795 67.8608ZM320.717 124.774C328.55 121.36 342.489 125.868 339.725 136.378C336.211 145.757 321.388 144.644 316.051 137.509C312.883 132.983 315.341 126.174 320.717 124.774ZM261.351 119.708C274.675 118.365 285.6 107.816 299.29 108.449C304.57 108.813 307.258 114.472 307.45 119.17C307.873 122.968 307.757 128.338 303.398 129.757C298.867 130.812 294.24 129.124 289.729 128.587C282.529 126.65 275.866 131.081 268.839 131.829C254.765 133.325 240.557 130.217 226.521 132.519C217.594 133.651 210.375 139.998 201.485 141.226C197.761 141.897 193.805 139.769 192.672 136.086C189.235 129.604 195.322 123.965 201.331 122.891C220.973 118.058 241.402 121.414 261.351 119.708ZM1045.04 100.967C1050.93 98.9151 1057.59 99.5288 1063.6 100.91C1071.09 104.132 1074.78 112.993 1082.9 115.199C1098.72 119.572 1114.9 113.376 1130.9 114.278C1138.21 114.834 1144.76 118.977 1152.13 119.208C1161.48 118.383 1169.01 109.215 1178.84 111.842C1186.96 114.566 1184.49 126.61 1177.57 129.257C1169.4 132.153 1160.66 133.017 1152.13 134.321C1143.32 136.143 1135.83 129.583 1127.21 129.506C1110.51 128.816 1093.78 133.342 1077.12 130.619C1070.42 129.679 1069.06 121.873 1065.45 117.328C1063.56 113.952 1059.07 113.914 1055.96 115.314C1055.29 119.898 1055.33 124.54 1054.42 129.066C1051.58 133.266 1044.98 132.498 1041.43 129.66C1038.55 127.281 1039.99 122.717 1039.93 119.437C1041.02 113.28 1040.93 106.011 1045.04 100.967ZM1124.51 51.062C1148.1 61.9174 1174.29 53.7087 1199 57.1802C1212.35 58.6381 1218.93 73.6745 1232.37 74.8062C1242.36 76.7241 1251.74 72.0446 1261.52 71.2007C1269.27 72.3323 1276.45 75.9375 1284.19 77.2993C1322.94 85.1437 1362.41 77.3954 1401.5 78.6421C1409.53 78.7572 1417.65 80.1762 1425.62 78.4692C1460.06 71.5071 1495.35 75.0364 1530.2 74.6528C1537.84 74.4419 1545.64 74.8634 1553.17 73.1372C1558.83 68.9561 1562.17 60.0385 1570.5 60.978C1576.68 61.189 1578.14 69.2244 1574.65 73.2905C1570.48 78.5457 1566.68 84.6838 1560.75 88.0786C1549.61 91.6268 1537.82 88.4426 1526.44 88.481C1511.98 87.8864 1498.81 96.23 1484.35 95.271C1476.33 93.6023 1469.74 87.043 1461.16 87.6567C1415.62 88.5774 1370.28 94.2156 1324.72 93.9663C1309.46 93.4868 1294 93.5064 1279.12 89.7856C1270.83 87.8869 1262.34 85.6622 1253.8 86.9663C1242.55 88.3089 1230.7 92.2973 1219.66 87.8286C1213.04 85.4504 1209.79 78.4691 1203.88 75.0552C1197.22 71.9291 1189.77 71.2192 1182.55 70.4712C1163.37 69.0711 1144.07 71.0274 1124.91 69.0903C1117.42 68.1314 1111.22 73.3485 1104.13 74.6528C1098.74 75.9379 1092.88 75.803 1087.85 78.2964C1083.17 80.7514 1084.59 88.1356 1089.33 89.5933C1096.19 91.7797 1103.33 88.8839 1109.99 87.1577C1121.63 83.015 1134.14 84.4344 1146.26 84.2427C1159.08 84.4345 1171.95 84.4921 1184.77 85.4702C1203.15 85.3744 1213.06 105.532 1230.72 107.718C1239.34 106.913 1246.56 99.7778 1255.56 101.254C1311.61 107.89 1368.29 107.756 1424.52 103.958C1438.02 103.268 1451.23 98.9145 1464.81 99.8159C1468.51 99.8163 1470.22 104.496 1468.74 107.488C1466.48 112.494 1461.02 115.793 1455.51 115.333C1414.43 115.716 1373.51 120.088 1332.42 120.415C1308.02 120.875 1283.88 116.023 1259.5 115.754C1254.28 115.869 1248.42 115.754 1244.24 119.417C1239.59 122.678 1235.25 128.681 1228.78 126.763C1222.25 124.366 1218.05 118.362 1212.52 114.45C1205.16 109.214 1197.08 104.937 1188.52 102.098C1176.67 98.3198 1164.15 100.718 1152.02 101.063C1141.77 101.715 1131.67 98.1091 1121.43 99.8735C1110.01 101.139 1098.26 105.704 1086.87 101.887C1078.43 99.5089 1077.23 87.9824 1068.59 85.9302C1059.21 83.9357 1049.93 87.5034 1040.66 88.4048C1032.23 89.3829 1024.21 85.604 1015.83 85.7573C1005.5 86.467 995.52 92.2599 985.056 89.8433C980.755 88.5773 981.139 82.4198 983.712 79.6196C988.281 74.9017 995.213 73.8658 1001.41 72.7534C1022.69 69.8573 1044.17 71.8903 1065.52 72.2739C1070.34 72.4657 1075.2 71.718 1079.63 69.7427C1094.57 63.4902 1109.47 57.1036 1124.51 51.062ZM1864.07 94.6519C1868.16 93.8464 1873.54 93.5977 1875.8 97.9321C1876.63 102.075 1874.73 106.466 1870.83 108.231C1861.67 112.853 1851.07 111.722 1841.18 112.662C1831.58 113.237 1822.58 119.336 1812.81 116.67C1804.51 114.714 1796.08 112.758 1787.5 113.544C1771.47 114.638 1755.22 114.311 1739.44 117.687C1734.45 118.473 1727.77 119.586 1724.39 114.81C1721.34 110.514 1723.26 103.993 1728.56 102.727C1744.53 97.7021 1761.43 102.727 1777.75 100.809C1786.19 99.9076 1794.6 96.7046 1803.17 98.6226C1823.35 103.302 1844.2 98.8713 1864.07 94.6519ZM1034.78 23.4614C1042.14 17.1323 1053.27 15.483 1062.26 18.9927C1066.85 20.6997 1068.38 26.8367 1065.25 30.5767C1057.42 33.7986 1048.45 31.4979 1040.62 34.6431C1034.38 37.4625 1038.26 47.7998 1044.58 47.4546C1061.28 47.512 1075.99 36.6574 1092.71 36.7915C1099.79 36.4271 1103.58 47.6273 1097.01 50.8687C1090.35 53.2659 1083.05 52.8058 1076.28 54.8003C1065.24 57.8115 1053.77 60.7464 1042.25 58.9819C1034.42 58.1572 1027.26 53.8999 1019.29 53.9956C1009.17 55.2998 1001.2 63.7382 990.701 63.4507C984.98 64.0261 977.625 62.3765 973.632 67.6509C969.504 74.6898 973.268 83.5512 970.1 90.897C968.333 94.3683 964.416 95.8069 960.922 96.8042C939.86 101.465 917.952 94.9625 896.967 100.39C884.084 103.267 871.392 107.583 858.105 108.12C852.48 108.273 845.971 107.698 842.112 103.056C839.136 99.834 841.594 94.4066 845.491 93.1216C855.034 89.4967 865.46 91.3949 875.405 91.0688C892.493 91.2221 907.987 80.2331 925.286 83.1099C935.155 83.762 946.502 87.7896 955.526 82.1509C961.92 73.9229 955.622 59.9407 965.356 53.5347C976.262 47.4548 989.818 54.4359 1000.84 48.6245C1006.16 45.2103 1002.3 36.2161 996.422 36.1011C986.745 34.9697 977.319 39.706 967.661 38.2485C960.672 37.1937 958.464 25.0145 966.048 23.1157C975.475 20.4498 985.268 23.001 994.829 23.3462C999.648 23.8448 1006.06 23.0588 1008.37 28.5249C1012.07 34.0295 1014.14 44.7884 1023.09 42.2378C1029.95 38.3443 1029.08 28.5248 1034.78 23.4614ZM165.235 65.145C174.298 63.7066 182.918 68.2905 191.923 68.5591C205.459 69.0002 218.823 65.4138 232.378 66.0659C242.899 66.5071 252.365 72.3374 262.963 72.4526C270.854 73.565 280.877 71.5128 286.637 78.3599C290.592 84.4973 292.55 94.8345 285.907 99.8403C278.861 102.199 276.576 94.1056 273.158 89.8286C269.28 83.3079 260.793 82.8474 254.093 81.6392C228.96 79.2801 203.827 85.0341 178.675 82.9243C172.781 82.253 166.061 81.2744 161.99 76.4604C159.974 72.8354 160.224 66.0464 165.235 65.145ZM1818.45 40.5132C1828.34 40.0528 1838.52 36.447 1848.27 39.6499C1855.79 42.4504 1854.16 56.8544 1845.35 55.7036C1798.87 51.3115 1752.88 61.6486 1706.63 64.0269C1704.36 64.2762 1701.62 64.6023 1700.45 66.8462C1697.22 73.3672 1699.08 81.1928 1696.24 87.7905C1693.54 91.6646 1687.81 89.7088 1684.57 87.6567C1678.89 83.5141 1684.55 76.3215 1685.13 70.9321C1687.43 65.6579 1680.17 63.1646 1676.2 64.4878C1669.21 67.499 1665.02 75.7453 1656.92 76.2632C1647.38 76.1672 1639.58 68.17 1629.89 69.4165C1624.42 70.759 1620.58 75.2852 1616.03 78.2964C1611.3 81.8829 1605.1 82.3437 1600.05 85.2397C1595.52 88.4043 1592.37 93.218 1587.67 96.1333C1584.38 97.3799 1580.54 96.4213 1578.16 93.9282C1575.4 88.2511 1579.7 82.324 1583.4 78.2388C1589.2 71.5261 1598.73 71.7372 1606.33 68.4575C1613.59 65.3313 1617.62 57.6984 1624.82 54.5337C1632.98 51.6376 1641.33 54.9933 1648.7 58.4839C1654.94 62.0129 1659.95 55.1658 1665.37 52.9985C1675.89 48.7984 1686.8 57.3906 1697.43 53.6509C1736.89 43.1789 1777.98 42.9298 1818.45 40.5132ZM695.385 78.2603C702.7 76.3039 712.549 82.0961 711.57 90.3433C709.535 98.8588 696.653 97.7659 692.467 91.5903C689.99 87.4668 689.779 79.8907 695.385 78.2603ZM1841.22 68.9214C1850.05 66.9651 1859.31 65.6799 1868.26 67.7896C1879.03 69.8226 1888.22 76.5158 1898.92 78.7407C1903.4 79.7511 1907.84 78.9815 1912.01 77.3696C1915.67 75.958 1920 78.3438 1920 82.2642V87.394C1920 89.7696 1918.33 91.8217 1916.01 92.3354C1904.84 94.8095 1891.81 97.7728 1883.12 88.8481C1876.88 82.2696 1867.51 80.563 1858.83 81.9438C1842.2 84.4947 1825.36 84.1305 1808.62 84.4565C1784.95 84.7826 1761.23 85.4157 1737.71 88.1392C1729.09 88.9064 1721.47 93.9507 1712.83 94.2192C1707.42 93.4329 1706.61 86.3551 1708.28 82.1548C1710.41 76.6695 1717.17 76.1514 1722.2 76.0171C1749.29 76.439 1775.75 68.6142 1802.84 69.1704C1815.61 69.0554 1828.55 71.8366 1841.22 68.9214ZM785.414 61.7612C778.637 64.4655 772.031 67.5723 765.484 70.7368C761.664 72.4055 759.091 76.4715 760.396 80.6333C761.902 84.309 766.231 85.0025 769.746 85.5649C769.862 85.5836 769.978 85.6022 770.093 85.6206C777.101 86.1193 784.838 86.6172 791.193 83.0308C799.565 77.5646 795.36 62.2983 785.414 61.7612ZM602.707 61.6479C610.541 60.0944 618.566 67.2681 616.339 75.3618C614.399 85.4307 599.443 85.1428 594.105 78.104C588.845 71.5447 594.566 61.418 602.707 61.6479ZM814.655 39.4595C818.994 37.5223 824.179 39.2302 827.77 42.0112C833.721 47.1897 836.294 55.1874 842.169 60.4233C847.967 64.7962 855.916 65.1223 861.522 69.8403C865.804 73.6186 861.907 81.7506 856.301 81.1372C845.798 80.7153 836.985 73.9443 828.768 68.0562C822.22 62.5901 814.655 57.2774 811.257 49.1646C810.278 45.7315 811.008 41.0514 814.655 39.4595ZM196.07 39.0942C208.781 40.4943 221.415 36.5053 234.067 37.8862C241.728 38.6536 244.301 51.5993 236.025 53.4214C208.665 57.5257 181.114 50.6782 153.734 51.1577C144.768 57.0266 155.789 69.3213 149.645 76.8013C145.152 83.4372 131.002 82.6509 131.232 73.0806C134.285 66.4061 139.066 60.6521 141.562 53.6899C124.378 49.6814 107.654 58.446 90.4512 56.4321C63.6552 53.6082 76.4896 53.4577 58.1309 53.8667C53.6815 53.9658 50 50.3816 50 45.9312C50 40.9915 54.4889 37.2617 59.375 37.9868C116.64 46.4863 134.033 34.0651 196.07 39.0942ZM870.72 74.1909C868.666 64.1987 882.336 60.1708 889.882 62.7983C896.064 64.045 898.003 73.2509 891.994 76.1089C885.85 79.6379 874.521 81.7093 870.72 74.1909ZM931.238 38.769C936.269 34.0509 943.968 33.7829 950.438 34.8569C954.778 35.3748 958.79 39.6902 956.697 44.1782C953.606 48.3207 948.345 50.3731 945.562 54.7075C945.005 59.464 945.945 64.2782 945.216 69.0347C943.161 75.0184 933.773 75.0377 930.394 70.2622C927.821 65.9276 930.739 60.6718 930.72 55.9536C931.737 50.2766 927.13 43.7364 931.238 38.769ZM877.344 40.6812C887.424 38.8591 897.735 32.722 908.045 36.6538C913.593 38.3801 915.782 44.2299 917.049 49.3315C918.374 55.258 919.411 61.4915 917.99 67.4946C917.203 74.4757 904.588 74.6096 904.262 67.3599C902.438 61.6252 905.913 51.7669 898.368 49.6187C883.968 48.161 870.604 57.1375 856.146 55.7183C853.382 55.3538 850.713 53.7613 849.389 51.2681C848.179 48.5829 847.43 44.0958 850.963 42.8491C859.257 39.1283 868.685 42.7142 877.344 40.6812ZM1299.46 32.4624C1309.78 30.6403 1320.36 31.4071 1330.79 32.1167C1338.45 32.8647 1347.05 33.5369 1352.7 39.4634C1357.54 44.1432 1359.28 52.4667 1366.62 54.1353C1386.47 59.4863 1406.57 51.9489 1426.54 52.6968C1434.16 52.8502 1434.7 64.4337 1427.77 66.4097C1403.92 72.2978 1379.5 64.8755 1355.44 64.6646C1347.03 64.8948 1339.16 68.558 1330.75 68.769C1315.81 69.939 1301.18 65.7966 1286.3 65.4321C1283.12 65.1828 1279.54 65.3744 1276.99 63.1304C1275.26 60.8864 1275.15 58.5847 1276.63 56.2065C1280.04 51.2392 1284.96 47.5182 1288.32 42.4741C1291.24 38.4465 1293.89 33.1147 1299.46 32.4624ZM1547.44 40.6118C1553.24 37.0828 1559.42 32.6526 1566.64 33.8032C1577.14 35.1458 1587.61 37.9654 1597.09 42.7603C1601.16 45.0042 1606.54 48.495 1605.18 53.9419C1603.41 57.5092 1599.67 60.5391 1595.48 59.8872C1585.36 58.7748 1579.16 47.8044 1568.68 47.9771C1558 46.6731 1552.19 58.4494 1542.05 59.1782C1515.19 62.2853 1488.06 61.5942 1461.08 60.5776C1453.44 60.1173 1444.15 59.8493 1439.12 53.1558C1435.85 48.3033 1435.55 39.3847 1441.86 36.853C1450.98 34.3218 1454.32 47.0948 1463.14 46.5386C1482.89 47.8044 1502.75 46.6342 1522.52 45.6177C1530.89 44.6588 1540.05 45.4065 1547.44 40.6118ZM1282 7.29932C1296.63 3.84711 1311.86 4.2692 1326.8 4.38428C1333.67 4.15413 1340.1 6.68575 1346.44 9.06396C1352.98 11.634 1360.2 9.96574 1366.92 11.6919C1373.64 13.3992 1374.12 25.4434 1367.02 26.9204C1354.87 28.3013 1344.46 19.6134 1332.48 19.3257C1318.98 18.8846 1305.41 18.6161 1291.97 19.8052C1288.01 19.9586 1285.23 23.0656 1283 25.9233C1276.82 33.9212 1272.71 43.281 1266.55 51.2788C1259.85 60.4655 1247.06 61.2139 1236.67 60.6577C1225.34 60.1974 1220.16 47.6148 1209.54 45.2173C1189.32 40.4608 1168.63 47.4617 1148.27 44.5464C1142.19 43.7791 1135.14 40.7489 1133.68 34.1704C1132.03 26.8055 1134.01 18.2134 1140.44 13.687C1148.24 8.20175 1157.49 4.00109 1167.22 4.34619C1181.32 4.40373 1195.41 4.74942 1209.46 5.86182C1220.08 6.4372 1229.43 13.3409 1240.22 12.3628C1245.89 12.6313 1253.43 10.1 1257.45 15.4702C1258.68 21.6844 1255.39 30.3725 1247.92 30.1616C1238.48 29.6821 1230.6 23.4486 1221.35 21.9526C1205.47 19.1141 1189.29 18.0024 1173.16 17.7339C1165.94 18.0216 1158.3 17.7722 1151.58 20.8218C1146.99 23.0275 1145.4 30.1038 1150.41 32.8081C1155.94 33.7286 1161.5 32.0031 1167.03 31.562C1189.79 28.8385 1214.86 29.0689 1234.27 42.9165C1244.47 51.0675 1258.39 42.9736 1263.57 32.8853C1268.79 23.9284 1270.66 10.7708 1282 7.29932ZM1332.4 44.2202C1322 43.9517 1311.09 42.2641 1301.07 45.7739C1296.9 47.0206 1295.67 51.9888 1298.25 55.3452C1302.91 59.3919 1309.44 56.9371 1314.91 56.5151C1323.26 54.9426 1331.71 57.5885 1340.08 56.4761C1344.1 56.3418 1346.46 51.5666 1344.17 48.2485C1341.85 44.0675 1336.42 44.7572 1332.4 44.2202ZM744.998 20.6821C737.76 20.3563 729.024 26.5318 729.907 34.3569C732.365 41.5489 742.502 42.1436 747.936 38.0396C754.118 33.9927 752.793 21.8713 744.998 20.6821ZM1489.8 18.7231C1508.16 19.8164 1525.25 8.69248 1543.64 11.9722C1550.11 13.027 1551.86 22.5401 1546.75 26.2417C1541.97 29.6364 1535.77 29.0804 1530.24 29.1763C1508.35 28.1981 1486.77 35.3523 1464.88 32.6479C1461.12 32.1109 1457.15 31.1135 1454.32 28.4478C1450.94 24.4776 1453.69 17.4381 1459.18 17.438C1469.4 16.5366 1479.55 19.1451 1489.8 18.7231Z" fill="#EFF1F4"/>
</svg>
